<svg width="36" height="32" viewBox="0 0 36 32" fill="none" xmlns="http://www.w3.org/2000/svg">
<path d="M5.58979 30.757L6.26208 30.4246L6.26208 30.4246L5.58979 30.757ZM30.4102 30.757L31.0825 31.0895L31.0825 31.0895L30.4102 30.757ZM7.41789 9.19218C7.20843 9.54953 7.32833 10.009 7.68568 10.2185C8.04304 10.4279 8.50253 10.308 8.71198 9.95068L7.41789 9.19218ZM13.7359 1.37925C13.9454 1.0219 13.8255 0.562409 13.4681 0.352954C13.1108 0.143499 12.6513 0.263395 12.4418 0.620748L13.7359 1.37925ZM23.5582 0.620748C23.3487 0.263395 22.8892 0.143499 22.5319 0.352954C22.1745 0.562409 22.0546 1.0219 22.2641 1.37925L23.5582 0.620748ZM27.288 9.95068C27.4975 10.308 27.957 10.4279 28.3143 10.2185C28.6717 10.009 28.7916 9.54953 28.5821 9.19218L27.288 9.95068ZM1.47852 10.3214H34.5215V8.82143H1.47852V10.3214ZM34.25 10.0552V11.0999H35.75V10.0552H34.25ZM30.0214 30.25H5.97865V31.75H30.0214V30.25ZM1.75 11.0999V10.0552H0.25V11.0999H1.75ZM6.26208 30.4246C3.29493 24.4248 1.75 17.8086 1.75 11.0999H0.25C0.25 18.0387 1.84789 24.8825 4.91751 31.0895L6.26208 30.4246ZM5.97865 30.25C6.10245 30.25 6.21069 30.3207 6.26208 30.4246L4.91751 31.0895C5.11618 31.4912 5.52551 31.75 5.97865 31.75V30.25ZM29.7379 30.4245C29.7893 30.3207 29.8976 30.25 30.0214 30.25V31.75C30.4745 31.75 30.8838 31.4912 31.0825 31.0895L29.7379 30.4245ZM34.25 11.0999C34.25 17.8086 32.7051 24.4248 29.7379 30.4246L31.0825 31.0895C34.1521 24.8825 35.75 18.0387 35.75 11.0999H34.25ZM34.5215 10.3214C34.3638 10.3214 34.25 10.1945 34.25 10.0552H35.75C35.75 9.3816 35.2077 8.82143 34.5215 8.82143V10.3214ZM1.47852 8.82143C0.792291 8.82143 0.25 9.3816 0.25 10.0552H1.75C1.75 10.1945 1.63619 10.3214 1.47852 10.3214V8.82143ZM8.71198 9.95068L13.7359 1.37925L12.4418 0.620748L7.41789 9.19218L8.71198 9.95068ZM22.2641 1.37925L27.288 9.95068L28.5821 9.19218L23.5582 0.620748L22.2641 1.37925Z" fill="#BC1515"/>
</svg>
