<svg width="34" height="34" viewBox="0 0 34 34" fill="none" xmlns="http://www.w3.org/2000/svg">
<g clip-path="url(#clip0)">
<path d="M27.2261 14.8748C26.9898 14.8748 26.7563 14.8871 26.5261 14.9108L24.8807 6.9056H27.3511C27.7948 6.9056 28.1558 7.26667 28.1558 7.71042C28.1558 8.15418 27.7948 8.51518 27.3511 8.51518C26.9844 8.51518 26.687 8.8125 26.687 9.17929C26.687 9.54607 26.9844 9.84339 27.3511 9.84339C28.5272 9.84339 29.484 8.88655 29.484 7.71042C29.484 6.5343 28.5272 5.57739 27.3511 5.57739H24.0661C23.8666 5.57739 23.6775 5.66718 23.5515 5.82185C23.4254 5.97652 23.3755 6.17973 23.4157 6.37525L24.3181 10.7659H13.2856L13.0149 9.56207H13.9835C15.082 9.56207 15.9758 8.66833 15.9758 7.56977C15.9758 6.47121 15.082 5.57746 13.9835 5.57746H10.2645C9.16594 5.57746 8.27219 6.47121 8.27219 7.56977C8.27219 8.66833 9.16594 9.56207 10.2645 9.56207H11.6536L12.8042 14.6791L11.0689 16.4145C9.89911 15.4529 8.40275 14.8748 6.77384 14.8748C6.10456 14.8748 5.44325 14.9723 4.80823 15.1646C4.45719 15.2709 4.25882 15.6416 4.36508 15.9926C4.47133 16.3437 4.84197 16.5421 5.19315 16.4358C5.70324 16.2813 6.23506 16.203 6.77384 16.203C8.0363 16.203 9.19888 16.6361 10.1235 17.3598L7.8297 19.6536C7.51439 19.4861 7.15511 19.3907 6.77384 19.3907C5.52878 19.3907 4.51589 20.4036 4.51589 21.6487C4.51589 22.8937 5.52878 23.9066 6.77384 23.9066C7.78786 23.9066 8.64774 23.2347 8.93198 22.3128H12.1775C11.8487 25.0032 9.55159 27.0943 6.77384 27.0943C3.7711 27.0943 1.3282 24.6514 1.3282 21.6487C1.3282 21.1181 1.40417 20.5941 1.554 20.0911C1.65873 19.7396 1.4587 19.3697 1.10719 19.265C0.755679 19.1602 0.38584 19.3604 0.281111 19.7118C0.0945644 20.3379 -3.8147e-06 20.9896 -3.8147e-06 21.6487C-3.8147e-06 25.3838 3.03873 28.4225 6.77384 28.4225C9.77107 28.4225 12.3194 26.4656 13.2095 23.7625C13.6882 24.163 14.304 24.4047 14.9755 24.4047C15.4951 24.4047 15.9815 24.2601 16.3967 24.009L17.3967 25.009C17.3086 25.1217 17.2556 25.2633 17.2556 25.4174C17.2556 25.7842 17.553 26.0815 17.9197 26.0815H19.5688C19.9356 26.0815 20.2329 25.7842 20.2329 25.4174C20.2329 25.0506 19.9356 24.7533 19.5688 24.7533H19.0194L17.3359 23.0698C17.5869 22.6545 17.7316 22.1682 17.7316 21.6486C17.7316 21.129 17.587 20.6427 17.3359 20.2274L24.7409 12.8224L25.2248 15.1766C22.4636 16.0322 20.4523 18.6099 20.4523 21.6486C20.4523 25.3837 23.491 28.4225 27.2261 28.4225C30.9613 28.4225 34 25.3837 34 21.6486C34 17.9135 30.9613 14.8748 27.2261 14.8748ZM9.60046 7.5697C9.60046 7.20351 9.89838 6.9056 10.2646 6.9056H13.9835C14.3497 6.9056 14.6476 7.20351 14.6476 7.5697C14.6476 7.93589 14.3497 8.2338 13.9835 8.2338H10.2646C9.89831 8.2338 9.60046 7.93589 9.60046 7.5697ZM23.5909 12.094L16.3967 19.2883C16.0185 19.0597 15.5814 18.9193 15.1138 18.8961L13.5844 12.094H23.5909V12.094ZM13.81 19.152C13.5931 19.2537 13.3914 19.3826 13.2095 19.5348C12.945 18.7312 12.5341 17.9935 12.008 17.3537L13.149 16.2127L13.81 19.152ZM8.76894 20.5928L11.0628 18.299C11.6575 19.0589 12.0548 19.9797 12.1776 20.9845H8.93204C8.88987 20.848 8.83489 20.7171 8.76894 20.5928ZM6.77384 22.5784C6.26116 22.5784 5.8441 22.1614 5.8441 21.6487C5.8441 21.136 6.26116 20.7189 6.77384 20.7189C7.28653 20.7189 7.70359 21.136 7.70359 21.6487C7.70359 22.1614 7.28653 22.5784 6.77384 22.5784ZM16.0649 21.7989C15.8056 21.5396 15.3851 21.5396 15.1257 21.7989C14.8664 22.0582 14.8664 22.4787 15.1257 22.7381L15.3997 23.0121C15.2657 23.0539 15.1231 23.0764 14.9754 23.0764C14.1882 23.0764 13.5476 22.4359 13.5476 21.6486C13.5476 20.8613 14.1882 20.2208 14.9754 20.2208C15.7627 20.2208 16.4033 20.8613 16.4033 21.6486C16.4033 21.7963 16.3807 21.9388 16.3389 22.0729L16.0649 21.7989ZM27.2261 27.0943C24.2234 27.0943 21.7805 24.6514 21.7805 21.6487C21.7805 19.2514 23.3382 17.2125 25.4941 16.4871L26.1474 19.6655C25.4454 20.0489 24.9681 20.794 24.9681 21.6487C24.9681 22.8937 25.981 23.9066 27.2261 23.9066C28.4711 23.9066 29.484 22.8937 29.484 21.6487C29.484 20.4789 28.5898 19.5142 27.4491 19.4018L26.7954 16.2216C26.9377 16.2104 27.081 16.203 27.2261 16.203C30.2288 16.203 32.6717 18.6459 32.6717 21.6487C32.6717 24.6514 30.2289 27.0943 27.2261 27.0943ZM27.2261 20.7189C27.7388 20.7189 28.1559 21.136 28.1559 21.6487C28.1559 22.1614 27.7388 22.5784 27.2261 22.5784C26.7135 22.5784 26.2964 22.1614 26.2964 21.6487C26.2964 21.136 26.7135 20.7189 27.2261 20.7189Z" fill="white"/>
<path d="M2.44022 18.0062C2.61488 18.0062 2.78622 17.9351 2.90974 17.8116C3.03327 17.6881 3.10432 17.5167 3.10432 17.3421C3.10432 17.1674 3.03327 16.9961 2.90974 16.8726C2.78622 16.749 2.61488 16.678 2.44022 16.678C2.26556 16.678 2.09422 16.749 1.9707 16.8726C1.84718 16.9961 1.77612 17.1674 1.77612 17.3421C1.77612 17.5167 1.84718 17.6881 1.9707 17.8116C2.09422 17.9351 2.26556 18.0062 2.44022 18.0062Z" fill="white"/>
</g>
<defs>
<clipPath id="clip0">
<rect width="34" height="34" fill="white"/>
</clipPath>
</defs>
</svg>
