<svg width="34" height="34" viewBox="0 0 34 34" fill="none" xmlns="http://www.w3.org/2000/svg">
<path d="M24.9735 20.5115L13.7695 9.30754C13.645 9.18303 13.4761 9.11304 13.3 9.11304H9.49609C9.12933 9.11304 8.83203 9.41034 8.83203 9.7771V28.6875C8.83203 29.0542 9.12933 29.3515 9.49609 29.3515H24.5039C24.8707 29.3515 25.168 29.0542 25.168 28.6875V20.981C25.168 20.8049 25.098 20.636 24.9735 20.5115ZM23.8398 28.0234H10.1602V10.4412H13.0249L23.8398 21.2561V28.0234Z" fill="white"/>
<path d="M25.5126 17.783C25.504 17.7405 25.4914 17.6987 25.4748 17.6588C25.4582 17.6183 25.4376 17.5798 25.4137 17.544C25.3898 17.5074 25.3619 17.4736 25.3313 17.443C25.3008 17.4125 25.2669 17.3846 25.2304 17.3607C25.1945 17.3368 25.156 17.3162 25.1155 17.2996C25.0757 17.283 25.0338 17.2697 24.9913 17.2617C24.9057 17.2445 24.8173 17.2445 24.7317 17.2617C24.6898 17.2697 24.648 17.283 24.6075 17.2996C24.5677 17.3162 24.5291 17.3368 24.4933 17.3607C24.4568 17.3846 24.4229 17.4125 24.3923 17.443C24.3618 17.4736 24.3339 17.5074 24.3093 17.544C24.2854 17.5798 24.2648 17.6183 24.2482 17.6588C24.2316 17.6987 24.219 17.7405 24.2104 17.783C24.2018 17.8255 24.1978 17.8693 24.1978 17.9125C24.1978 17.9557 24.2018 17.9995 24.2104 18.042C24.219 18.0845 24.2316 18.1263 24.2482 18.1662C24.2648 18.2067 24.2854 18.2452 24.3093 18.2811C24.3339 18.3176 24.3618 18.3514 24.3923 18.382C24.4229 18.4125 24.4568 18.4404 24.4933 18.465C24.5291 18.4889 24.5677 18.5088 24.6075 18.5261C24.648 18.5427 24.6898 18.5553 24.7317 18.5639C24.7748 18.5726 24.8187 18.5766 24.8618 18.5766C24.905 18.5766 24.9488 18.5726 24.9913 18.5639C25.0338 18.5553 25.0757 18.5427 25.1155 18.5261C25.156 18.5088 25.1945 18.4889 25.2304 18.465C25.2669 18.4404 25.3008 18.4125 25.3313 18.382C25.3619 18.3514 25.3898 18.3176 25.4137 18.2811C25.4376 18.2452 25.4582 18.2067 25.4748 18.1662C25.4914 18.1263 25.504 18.0845 25.5126 18.042C25.5212 17.9995 25.5259 17.9557 25.5259 17.9125C25.5259 17.8693 25.5212 17.8255 25.5126 17.783Z" fill="white"/>
<path d="M23.6408 15.7524L16.1519 8.26353C15.8926 8.00428 15.4721 8.00428 15.2128 8.26353C14.9534 8.52291 14.9534 8.9434 15.2128 9.20271L22.7017 16.6916C22.8314 16.8212 23.0014 16.8861 23.1713 16.8861C23.3412 16.8861 23.5112 16.8212 23.6408 16.6916C23.9002 16.4322 23.9002 16.0117 23.6408 15.7524Z" fill="white"/>
<path d="M19.0532 19.2024C18.269 18.2229 17.4956 17.468 17.463 17.4364C17.2052 17.1856 16.7947 17.1856 16.5369 17.4364C16.5044 17.468 15.7309 18.223 14.9467 19.2024C13.8158 20.6148 13.2661 21.7242 13.2661 22.5941C13.2661 24.6529 14.9411 26.3279 17 26.3279C19.0589 26.3279 20.7338 24.6529 20.7338 22.594C20.7338 21.7241 20.184 20.6148 19.0532 19.2024ZM17 24.9998C15.6734 24.9998 14.5942 23.9206 14.5942 22.5941C14.5942 21.7413 15.8805 20.0468 17 18.8598C18.1196 20.047 19.4057 21.7413 19.4057 22.5941C19.4057 23.9206 18.3265 24.9998 17 24.9998Z" fill="white"/>
<path d="M26.5957 4.46463H16.7208V0.664062C16.7208 0.297301 16.4235 0 16.0567 0H7.66946C7.3027 0 7.00539 0.297301 7.00539 0.664062V4.48926C5.41702 4.68636 4.18359 6.0445 4.18359 7.68533V30.7793C4.18359 32.5552 5.62839 34 7.4043 34H26.5957C28.3716 34 29.8164 32.5552 29.8164 30.7793V7.68533C29.8164 5.90943 28.3716 4.46463 26.5957 4.46463ZM14.0213 1.32812H15.3926V4.46463H14.0213V1.32812ZM11.033 1.32812H12.6932V4.46463H11.033V1.32812ZM8.33352 1.32812H9.70487V4.46463H8.33352V1.32812ZM28.4883 30.7793C28.4883 31.8229 27.6393 32.6719 26.5957 32.6719H7.4043C6.36072 32.6719 5.51172 31.8229 5.51172 30.7793V7.68533C5.51172 6.64175 6.36072 5.79275 7.4043 5.79275H26.5957C27.6393 5.79275 28.4883 6.64175 28.4883 7.68533V30.7793Z" fill="white"/>
<path d="M25.8982 7.71875H18.4795C18.211 7.71875 17.9688 7.88058 17.866 8.12868C17.7632 8.37677 17.8201 8.66245 18.01 8.85237L25.4286 16.2711C25.5557 16.3981 25.7255 16.4656 25.8984 16.4656C25.9839 16.4656 26.0702 16.449 26.1523 16.415C26.4005 16.3122 26.5622 16.0701 26.5622 15.8015V8.38281C26.5623 8.01605 26.265 7.71875 25.8982 7.71875ZM25.2342 14.1983L20.0828 9.04687H25.2342V14.1983Z" fill="white"/>
</svg>
