<svg width="38" height="38" viewBox="0 0 38 38" fill="none" xmlns="http://www.w3.org/2000/svg">
<path d="M31.067 24.9891C30.1385 24.9891 29.2564 25.3528 28.5909 26.0105C27.9255 26.6759 27.5541 27.5425 27.5541 28.4711C27.5541 29.3996 27.9177 30.2662 28.5909 30.9317C29.2641 31.5894 30.1385 31.9531 31.067 31.9531C32.9705 31.9531 34.518 30.39 34.518 28.4711C34.518 26.5521 32.9705 24.9891 31.067 24.9891ZM31.067 30.4055C29.9992 30.4055 29.1016 29.5234 29.1016 28.4711C29.1016 27.4187 29.9992 26.5366 31.067 26.5366C32.1193 26.5366 32.9705 27.4033 32.9705 28.4711C32.9705 29.5389 32.1193 30.4055 31.067 30.4055ZM31.9646 13.3902C31.8253 13.2587 31.6396 13.189 31.4461 13.189H27.4767C27.0511 13.189 26.7029 13.5372 26.7029 13.9628V20.3078C26.7029 20.7333 27.0511 21.0815 27.4767 21.0815H33.7752C34.2008 21.0815 34.549 20.7333 34.549 20.3078V16.0597C34.549 15.8431 34.4561 15.6342 34.2936 15.4872L31.9646 13.3902ZM33.0014 19.534H28.2505V14.7289H31.1444L33.0014 16.4002V19.534ZM12.1715 24.9891C11.2429 24.9891 10.3608 25.3528 9.69538 26.0105C9.02993 26.6759 8.65852 27.5425 8.65852 28.4711C8.65852 29.3996 9.02219 30.2662 9.69538 30.9317C10.3686 31.5894 11.2429 31.9531 12.1715 31.9531C14.0749 31.9531 15.6225 30.39 15.6225 28.4711C15.6225 26.5521 14.0749 24.9891 12.1715 24.9891ZM12.1715 30.4055C11.1036 30.4055 10.2061 29.5234 10.2061 28.4711C10.2061 27.4187 11.1036 26.5366 12.1715 26.5366C13.2238 26.5366 14.0749 27.4033 14.0749 28.4711C14.0749 29.5389 13.2238 30.4055 12.1715 30.4055ZM7.01038 25.9408H5.4551V23.8826C5.4551 23.457 5.1069 23.1088 4.68133 23.1088C4.25575 23.1088 3.90755 23.457 3.90755 23.8826V26.7146C3.90755 27.1402 4.25575 27.4884 4.68133 27.4884H7.01038C7.43596 27.4884 7.78416 27.1402 7.78416 26.7146C7.78416 26.289 7.43596 25.9408 7.01038 25.9408ZM10.9334 21.7238C10.9334 21.2982 10.5852 20.95 10.1596 20.95H0.773773C0.348198 20.95 0 21.2982 0 21.7238C0 22.1493 0.348198 22.4975 0.773773 22.4975H10.1596C10.5852 22.4975 10.9334 22.1571 10.9334 21.7238ZM2.34453 18.9304L11.7304 18.9846C12.156 18.9846 12.5042 18.6442 12.5119 18.2186C12.5196 17.7853 12.1715 17.4371 11.7459 17.4371L2.36001 17.3829C2.35227 17.3829 2.35227 17.3829 2.35227 17.3829C1.92669 17.3829 1.5785 17.7234 1.5785 18.1489C1.57076 18.5822 1.91896 18.9304 2.34453 18.9304ZM3.92303 15.4175H13.3089C13.7345 15.4175 14.0827 15.0693 14.0827 14.6437C14.0827 14.2182 13.7345 13.87 13.3089 13.87H3.92303C3.49745 13.87 3.14926 14.2182 3.14926 14.6437C3.14926 15.0693 3.49745 15.4175 3.92303 15.4175ZM37.7137 14.3729L32.1735 9.78444C32.0342 9.66838 31.864 9.60648 31.6783 9.60648H25.1631V6.82089C25.1631 6.39532 24.8149 6.04712 24.3893 6.04712H4.68133C4.25575 6.04712 3.90755 6.39532 3.90755 6.82089V12.4849C3.90755 12.9105 4.25575 13.2587 4.68133 13.2587C5.1069 13.2587 5.4551 12.9105 5.4551 12.4849V7.59467H23.6233V25.9408H17.2784C16.8528 25.9408 16.5046 26.289 16.5046 26.7146C16.5046 27.1402 16.8528 27.4884 17.2784 27.4884H26.7261C27.1517 27.4884 27.4999 27.1402 27.4999 26.7146C27.4999 26.289 27.1517 25.9408 26.7261 25.9408H25.1708V11.154H31.4074L36.4525 15.3324L36.3983 25.9254H35.5936C35.168 25.9254 34.8198 26.2736 34.8198 26.6991C34.8198 27.1247 35.168 27.4729 35.5936 27.4729H37.1643C37.5899 27.4729 37.9381 27.1324 37.9381 26.7069L38 14.9765C37.9923 14.7443 37.8917 14.5199 37.7137 14.3729Z" fill="white"/>
</svg>
