<svg width="16" height="13" viewBox="0 0 16 13" fill="none" xmlns="http://www.w3.org/2000/svg">
<path d="M15.4574 0H0.542557C0.242935 0 0 0.271508 0 0.60637V12.3936C0 12.7284 0.242935 13 0.542557 13H15.4574C15.757 13 16 12.7284 16 12.3936V0.60637C16 0.271557 15.757 0 15.4574 0ZM14.9149 11.7873H1.08511V1.21274H14.9149V11.7873Z" fill="#BC1515"/>
<path d="M2.50683 4.06913L7.71538 7.65579C7.80262 7.71589 7.90128 7.74592 7.99998 7.74592C8.09868 7.74592 8.19734 7.71589 8.28458 7.65579L13.4931 4.06913C13.7482 3.89348 13.8276 3.51991 13.6705 3.23482C13.5133 2.94973 13.179 2.86095 12.924 3.03665L7.99998 6.42728L3.07604 3.03665C2.82104 2.8611 2.48678 2.94968 2.32952 3.23482C2.17231 3.51986 2.2517 3.89348 2.50683 4.06913Z" fill="#BC1515"/>
</svg>
