<svg width="34" height="34" viewBox="0 0 34 34" fill="none" xmlns="http://www.w3.org/2000/svg">
<path d="M31.5321 12.6579L29.874 12.3767C29.7264 11.9658 29.5596 11.5627 29.3752 11.1708L30.3515 9.80478C31.2011 8.61128 31.0646 6.99937 30.0304 5.97527L28.038 3.98256C27.4748 3.4194 26.7283 3.10916 25.9361 3.10916C25.3122 3.10916 24.7156 3.30138 24.2149 3.66168L22.8438 4.63832C22.4196 4.43781 21.9893 4.26064 21.5561 4.10759L21.2819 2.48297C21.0407 1.04408 19.8064 0 18.3471 0H15.5321C14.0729 0 12.8387 1.04408 12.598 2.48012L12.3098 4.16829C11.9028 4.31693 11.5015 4.48579 11.1085 4.67438L9.76224 3.70474C9.25745 3.34132 8.65849 3.14937 8.02997 3.14937C7.22998 3.14937 6.48317 3.46013 5.92624 4.02458L3.92912 6.01521C2.89775 7.04659 2.7626 8.6572 3.60799 9.84473L4.60019 11.2387C4.41731 11.6322 4.25285 12.0372 4.10759 12.4504L2.48271 12.7246C1.04408 12.9661 0 14.2003 0 15.6594V18.4744C0 19.9335 1.04408 21.1678 2.48012 21.4088L4.16829 21.6967C4.31693 22.1039 4.48605 22.5055 4.67438 22.8982L3.70837 24.2419C2.85884 25.4354 2.99529 27.0476 4.02951 28.0714L6.02196 30.0641C6.58511 30.6273 7.33167 30.9375 8.12387 30.9375C8.74773 30.9375 9.34435 30.7453 9.84473 30.3853L11.2387 29.3931C11.605 29.5632 11.9848 29.7191 12.3746 29.8595L12.6509 31.5173C12.8924 32.9559 14.1266 34 15.5858 34H18.4072C19.8664 34 21.1008 32.9559 21.3418 31.5191L21.623 29.8608C22.0339 29.7132 22.437 29.5464 22.829 29.3619L24.1906 30.3352C24.6953 30.6986 25.2943 30.8908 25.9228 30.8908C26.7148 30.8908 27.4613 30.5806 28.0245 30.0174L30.0169 28.0247C31.0486 26.9934 31.1834 25.3828 30.3381 24.1952L29.3606 22.8227C29.55 22.4217 29.7173 22.0189 29.8613 21.6183L31.517 21.3423C32.9557 21.1008 33.9997 19.8666 33.9997 18.4075V15.5982C34.0161 14.1375 32.9795 12.9017 31.5321 12.6579ZM32.0076 18.4075C32.0076 18.8897 31.6626 19.2978 31.1884 19.3774L28.9923 19.7434C28.5871 19.8109 28.2603 20.0967 28.1386 20.4897C27.9435 21.1219 27.6756 21.768 27.3428 22.4093C27.1544 22.7709 27.1845 23.2017 27.4211 23.5332L28.7153 25.3506C28.9944 25.7428 28.9495 26.2751 28.6084 26.6162L26.6159 28.6086C26.4263 28.7983 26.1866 28.8987 25.9228 28.8987C25.7148 28.8987 25.5184 28.8364 25.3519 28.7166L23.5423 27.4232C23.2095 27.1843 22.7768 27.1542 22.4134 27.3443C21.8049 27.6629 21.1582 27.9308 20.4913 28.1402C20.1022 28.2621 19.8181 28.5879 19.7504 28.9889L19.3774 31.1873C19.2978 31.6628 18.8897 32.0078 18.4072 32.0078H15.5858C15.1033 32.0078 14.6955 31.6628 14.6159 31.1886L14.2498 28.9926C14.1829 28.59 13.8997 28.2636 13.5106 28.1407C12.8532 27.9332 12.2273 27.6758 11.6496 27.3757C11.4922 27.294 11.3217 27.2538 11.1521 27.2538C10.9326 27.2538 10.7142 27.3212 10.5272 27.4543L8.68521 28.7653C8.5192 28.8849 8.33035 28.9453 8.12387 28.9453C7.86006 28.9453 7.62038 28.8452 7.43076 28.6553L5.43468 26.6595C5.09409 26.3223 5.05077 25.7916 5.32858 25.4012L6.61494 23.6118C6.85696 23.2759 6.88654 22.8401 6.69147 22.4736C6.36436 21.8601 6.09329 21.2168 5.88551 20.5613C5.76256 20.1748 5.43805 19.8923 5.03857 19.8241L2.81241 19.4446C2.33719 19.3647 1.99219 18.9566 1.99219 18.4744V15.6594C1.99219 15.1772 2.33719 14.7692 2.81319 14.6893L4.98228 14.3233C5.38773 14.255 5.71431 13.9684 5.83493 13.5741C6.0396 12.9043 6.30289 12.2566 6.61754 11.6496C6.80482 11.2888 6.77473 10.859 6.53894 10.5272L5.23105 8.68962C4.95168 8.29741 4.99655 7.76512 5.33662 7.42505L7.33582 5.4326L7.34308 5.42508C7.52284 5.2422 7.76668 5.14156 8.02997 5.14156C8.23801 5.14156 8.43463 5.20381 8.59805 5.32158L10.3952 6.6152C10.7316 6.85748 11.1679 6.88654 11.5332 6.69147C12.1466 6.36436 12.7899 6.09329 13.4447 5.88577C13.8312 5.76308 14.1137 5.43909 14.1824 5.03857L14.5622 2.81241C14.6418 2.33719 15.0498 1.99219 15.5323 1.99219H18.3473C18.8295 1.99219 19.2376 2.33719 19.3175 2.81319L19.6835 4.98306C19.752 5.38876 20.0391 5.71509 20.4337 5.83545C21.1063 6.03986 21.7771 6.31586 22.4279 6.65619C22.7895 6.84503 23.2204 6.81546 23.5535 6.57863L25.375 5.28137C25.5407 5.16179 25.7296 5.10135 25.9363 5.10135C26.1999 5.10135 26.4395 5.20148 26.6294 5.39136L28.6252 7.38718C28.9658 7.7244 29.0094 8.25513 28.7298 8.6476L27.4351 10.459C27.1975 10.7921 27.1679 11.2242 27.3576 11.5863C27.6764 12.1949 27.9441 12.8416 28.1537 13.5087C28.2758 13.8978 28.6014 14.1816 29.0024 14.2493L31.199 14.6221L31.2008 14.6223C31.6747 14.702 32.0143 15.104 32.0076 15.5785V18.4075Z" fill="white"/>
<path d="M17 10.3894C13.3549 10.3894 10.3895 13.3549 10.3895 16.9999C10.3895 20.645 13.3549 23.6105 17 23.6105C20.6451 23.6105 23.6105 20.645 23.6105 16.9999C23.6105 13.3549 20.6451 10.3894 17 10.3894ZM17 21.6183C14.4535 21.6183 12.3817 19.5465 12.3817 16.9999C12.3817 14.4534 14.4535 12.3816 17 12.3816C19.5465 12.3816 21.6183 14.4534 21.6183 16.9999C21.6183 19.5465 19.5465 21.6183 17 21.6183Z" fill="white"/>
</svg>
