<svg width="34" height="34" viewBox="0 0 34 34" fill="none" xmlns="http://www.w3.org/2000/svg">
<g clip-path="url(#clip0)">
<path d="M28.9527 21.5091V18.8529C28.9527 17.9867 28.3968 17.2482 27.6232 16.9744V9.29707C27.6232 7.83242 26.4308 6.64082 24.965 6.64082C24.4807 6.64082 24.0263 6.77085 23.6349 6.99782V5.31257C23.6349 3.84791 22.4425 2.65632 20.9767 2.65632C20.4924 2.65632 20.038 2.78634 19.6466 3.01338V2.65625C19.6466 1.19159 18.4541 0 16.9883 0C15.5225 0 14.3301 1.19159 14.3301 2.65625V3.01338C13.9386 2.78641 13.4843 2.65638 13 2.65638C11.5342 2.65638 10.3417 3.84798 10.3417 5.31263V14.7794L9.75482 14.2906C8.53048 13.271 6.88408 13.288 5.83977 14.3311C4.79659 15.3732 4.78172 17.0584 5.80517 18.251L10.3416 23.537V27.4731C9.56802 27.7469 9.01213 28.4854 9.01213 29.3516V32.0078C9.01213 33.1063 9.90583 34 11.0043 34H26.9605C28.059 34 28.9527 33.1063 28.9527 32.0078V29.3516C28.9527 28.4854 28.3968 27.7469 27.6232 27.4731V23.3876C28.3968 23.1138 28.9527 22.3753 28.9527 21.5091ZM27.6246 21.5091C27.6246 21.8753 27.3268 22.1732 26.9606 22.1732H17.6516C17.2854 22.1732 16.9876 21.8753 16.9876 21.5091V18.8529C16.9876 18.4867 17.2855 18.1888 17.6516 18.1888H26.9606C27.3268 18.1888 27.6246 18.4867 27.6246 18.8529V21.5091ZM6.81302 17.3861C6.24671 16.7262 6.23183 15.8168 6.77842 15.2707C7.39859 14.6512 8.31759 14.8221 8.90482 15.3112L10.5807 16.7069C10.7787 16.8718 11.0542 16.9072 11.2875 16.7979C11.5208 16.6886 11.6698 16.4542 11.6698 16.1966V5.31263C11.6698 4.5803 12.2664 3.98451 12.9999 3.98451C13.7333 3.98451 14.33 4.5803 14.33 5.31263V7.30495H13.6647C13.2979 7.30495 13.0006 7.60225 13.0006 7.96902C13.0006 8.33578 13.2979 8.63308 13.6647 8.63308H14.33V11.2895H13.6647C13.2979 11.2895 13.0006 11.5868 13.0006 11.9535C13.0006 12.3203 13.2979 12.6176 13.6647 12.6176H14.33V14.8684C14.33 15.2351 14.6273 15.5324 14.9941 15.5324C15.3608 15.5324 15.6581 15.2351 15.6581 14.8684V5.31257V2.65625C15.6581 1.92392 16.2548 1.32812 16.9883 1.32812C17.7217 1.32812 18.3184 1.92392 18.3184 2.65625V5.31257V5.31263H17.653C17.2863 5.31263 16.9889 5.60993 16.9889 5.9767C16.9889 6.34346 17.2863 6.64076 17.653 6.64076H18.3184V9.9612H17.653C17.2863 9.9612 16.9889 10.2585 16.9889 10.6253C16.9889 10.992 17.2863 11.2893 17.653 11.2893H18.3184V14.8684C18.3184 15.2351 18.6157 15.5324 18.9824 15.5324C19.3491 15.5324 19.6465 15.2351 19.6465 14.8684V5.31257C19.6465 4.58024 20.2432 3.98444 20.9766 3.98444C21.7101 3.98444 22.3067 4.58024 22.3067 5.31257V7.30489H21.6413C21.2746 7.30489 20.9773 7.60219 20.9773 7.96895C20.9773 8.33571 21.2746 8.63301 21.6413 8.63301H22.3067V9.29707V11.2894H21.6413C21.2746 11.2894 20.9773 11.5867 20.9773 11.9535C20.9773 12.3202 21.2746 12.6175 21.6413 12.6175H22.3067V14.8684C22.3067 15.2351 22.6041 15.5324 22.9708 15.5324C23.3375 15.5324 23.6349 15.2351 23.6349 14.8684V9.29707C23.6349 8.56475 24.2315 7.96895 24.9649 7.96895C25.6984 7.96895 26.295 8.56475 26.295 9.29707V11.2894H25.6296C25.2629 11.2894 24.9656 11.5867 24.9656 11.9535C24.9656 12.3202 25.2629 12.6175 25.6296 12.6175H26.295V16.8606H17.6516C16.5531 16.8606 15.6594 17.7543 15.6594 18.8528V21.5091C15.6594 22.6075 16.5531 23.5012 17.6516 23.5012H26.295V27.3594H11.6697V23.2911C11.6697 23.1325 11.6129 22.979 11.5095 22.8586L6.81302 17.3861ZM10.3403 32.0078V31.3438H13.3283C13.695 31.3438 13.9923 31.0464 13.9923 30.6797C13.9923 30.3129 13.695 30.0156 13.3283 30.0156H10.3403V29.3516C10.3403 28.9854 10.6382 28.6875 11.0043 28.6875H21.0071C21.0086 28.6875 21.0099 28.6878 21.0114 28.6878C22.0922 28.7066 22.9715 29.6002 22.9715 30.6797C22.9715 31.7591 22.0922 32.6527 21.0114 32.6716C21.0099 32.6716 21.0086 32.6719 21.0071 32.6719H11.0043C10.6382 32.6719 10.3403 32.374 10.3403 32.0078ZM27.6246 32.0078C27.6246 32.374 27.3267 32.6719 26.9605 32.6719H23.627C24.0484 32.1149 24.2996 31.424 24.2996 30.6797C24.2996 29.9353 24.0484 29.2444 23.627 28.6875H26.9605C27.3267 28.6875 27.6246 28.9854 27.6246 29.3516V32.0078Z" fill="white"/>
<path d="M21.6411 30.6797C21.6411 30.3129 21.3438 30.0156 20.9771 30.0156H20.9766C20.6099 30.0156 20.3128 30.3129 20.3128 30.6797C20.3128 31.0464 20.6103 31.3438 20.9771 31.3438C21.3438 31.3438 21.6411 31.0464 21.6411 30.6797Z" fill="white"/>
<path d="M22.3063 19.5168H22.3059C21.9392 19.5168 21.642 19.8141 21.642 20.1809C21.642 20.5477 21.9396 20.845 22.3063 20.845C22.6731 20.845 22.9704 20.5477 22.9704 20.1809C22.9704 19.8141 22.673 19.5168 22.3063 19.5168Z" fill="white"/>
<path d="M19.3149 19.5168H19.3145C18.9478 19.5168 18.6506 19.8141 18.6506 20.1809C18.6506 20.5477 18.9482 20.845 19.3149 20.845C19.6817 20.845 19.979 20.5477 19.979 20.1809C19.979 19.8141 19.6816 19.5168 19.3149 19.5168Z" fill="white"/>
<path d="M25.2977 19.5168H25.2973C24.9306 19.5168 24.6334 19.8141 24.6334 20.1809C24.6334 20.5477 24.931 20.845 25.2977 20.845C25.6645 20.845 25.9618 20.5477 25.9618 20.1809C25.9618 19.8141 25.6644 19.5168 25.2977 19.5168Z" fill="white"/>
<path d="M16.3164 30.0156C15.9496 30.0156 15.6523 30.3129 15.6523 30.6797C15.6523 31.0464 15.9496 31.3438 16.3164 31.3438H16.3168C16.6836 31.3438 16.9807 31.0464 16.9807 30.6797C16.9807 30.3129 16.6831 30.0156 16.3164 30.0156Z" fill="white"/>
</g>
<defs>
<clipPath id="clip0">
<rect width="34" height="34" fill="white"/>
</clipPath>
</defs>
</svg>
