<svg width="34" height="34" viewBox="0 0 34 34" fill="none" xmlns="http://www.w3.org/2000/svg">
<g clip-path="url(#clip0)">
<path d="M33.918 11.8643C32.7728 8.39289 30.5866 5.42373 27.5957 3.27788C24.6067 1.13342 21.0771 0 17.3884 0C12.7455 0 8.38009 1.78885 5.0963 5.03691C1.81052 8.28697 0.00094986 12.6086 0.00094986 17.2056C0.00094986 19.8933 0.711098 23.2355 1.33758 26.1843C1.55645 27.2144 1.76317 28.1873 1.93271 29.0925C2.15079 30.2567 2.93597 31.0744 4.00272 31.3058C4.07942 32.084 4.31463 32.6887 4.71633 33.1428C5.21942 33.7116 5.9544 34 6.90109 34H21.7274C23.2639 34 24.698 33.1782 25.4702 31.8553L27.6159 28.1794C28.4213 26.7995 28.0577 25.3958 26.6546 24.3463C26.7161 23.9499 26.6331 23.5363 26.4039 23.1873L25.1748 21.3193L32.0715 17.4494C32.8515 17.004 33.4349 16.2406 33.6722 15.3549C33.8444 14.7122 33.8169 14.0538 33.6007 13.4518C33.9645 13.0229 34.1014 12.4223 33.918 11.8643ZM26.4688 27.5099L24.3231 31.1858C23.7881 32.1024 22.7934 32.6719 21.7274 32.6719H6.90109C6.08947 32.6719 5.50729 32.4327 5.34719 31.3727H21.7281C22.32 31.372 22.8727 31.0531 23.1698 30.5416L26.0687 25.5753C27.0838 26.4551 26.6317 27.2308 26.4688 27.5099ZM25.2942 24.2693C25.288 24.2787 25.282 24.2884 25.2763 24.2981L22.0221 29.8733C21.9608 29.9788 21.8476 30.0444 21.7274 30.0446H4.6387C3.57706 30.0446 3.30566 29.2077 3.23826 28.8479C3.06573 27.927 2.85741 26.9464 2.63681 25.9083C2.02388 23.0234 1.32914 19.7537 1.32914 17.2055C1.32907 8.45073 8.53322 1.32812 17.3884 1.32812C24.3599 1.32812 30.4958 5.72947 32.6565 12.2797C32.7071 12.4336 32.6367 12.5987 32.4891 12.6723C32.4794 12.6771 32.4698 12.6821 32.4604 12.6875L23.4815 17.7258C23.036 17.9758 22.7272 18.3737 22.6121 18.8464C22.4999 19.3077 22.5842 19.7984 22.8436 20.1926L25.294 23.9168C25.3643 24.0237 25.3643 24.1621 25.2942 24.2693ZM32.3893 15.0112C32.2452 15.5488 31.8801 16.0291 31.4172 16.2936L24.4429 20.207L23.9531 19.4626C23.8964 19.3764 23.8775 19.2635 23.9026 19.1605C23.9303 19.0466 24.0073 18.9536 24.1314 18.8839L32.4353 14.2245C32.483 14.5278 32.4453 14.8024 32.3893 15.0112Z" fill="white"/>
<path d="M28.8979 13.2937C29.2647 13.2937 29.562 12.9963 29.562 12.6296C29.562 12.2629 29.2647 11.9656 28.8979 11.9656H28.8974C28.5307 11.9656 28.2336 12.2629 28.2336 12.6296C28.2336 12.9963 28.5312 13.2937 28.8979 13.2937Z" fill="white"/>
<path d="M23.9089 16.093C24.2757 16.093 24.573 15.7957 24.573 15.429C24.573 15.0623 24.2757 14.7649 23.9089 14.7649H23.9085C23.5417 14.7649 23.2446 15.0623 23.2446 15.429C23.2446 15.7957 23.5422 16.093 23.9089 16.093Z" fill="white"/>
<path d="M12.353 11.9819C7.95899 11.9819 4.38421 15.5567 4.38421 19.9507C4.38421 23.1169 6.25906 25.9835 9.16061 27.2535C9.49663 27.4005 9.88816 27.2474 10.0353 26.9115C10.1823 26.5754 10.0291 26.1839 9.69319 26.0368C7.27494 24.9784 5.7124 22.5894 5.7124 19.9508C5.7124 16.289 8.69139 13.3101 12.353 13.3101C16.0147 13.3101 18.9937 16.289 18.9937 19.9508C18.9937 22.5896 17.4309 24.9786 15.0124 26.0371C14.6764 26.1841 14.5233 26.5757 14.6703 26.9117C14.7794 27.161 15.0232 27.3097 15.279 27.3097C15.3679 27.3097 15.4583 27.2917 15.5449 27.2538C18.4467 25.9838 20.3218 23.1172 20.3218 19.9507C20.3217 15.5567 16.747 11.9819 12.353 11.9819Z" fill="white"/>
<path d="M16.0053 19.9507C16.0053 17.9368 14.3668 16.2983 12.3529 16.2983C10.339 16.2983 8.7006 17.9368 8.7006 19.9507C8.7006 21.9646 10.339 23.603 12.3529 23.603C14.3668 23.603 16.0053 21.9646 16.0053 19.9507ZM10.0287 19.9507C10.0287 18.6691 11.0714 17.6265 12.3529 17.6265C13.6345 17.6265 14.6772 18.6691 14.6772 19.9507C14.6772 21.2323 13.6345 22.2749 12.3529 22.2749C11.0714 22.2749 10.0287 21.2322 10.0287 19.9507Z" fill="white"/>
<path d="M12.353 26.5913H12.3525C11.9858 26.5913 11.6887 26.8887 11.6887 27.2554C11.6887 27.6221 11.9862 27.9194 12.353 27.9194C12.7198 27.9194 13.0171 27.6221 13.0171 27.2554C13.0171 26.8887 12.7198 26.5913 12.353 26.5913Z" fill="white"/>
</g>
<defs>
<clipPath id="clip0">
<rect width="34" height="34" fill="white"/>
</clipPath>
</defs>
</svg>
