<svg width="40" height="40" viewBox="0 0 40 40" fill="none" xmlns="http://www.w3.org/2000/svg">
<path d="M19.25 11.8571V12.6071H20.75V11.8571H19.25ZM20.75 11.83V11.08H19.25V11.83H20.75ZM20.75 28.1429L20.75 17.5H19.25L19.25 28.1429H20.75ZM20.75 11.8571V11.83H19.25V11.8571H20.75ZM15.9286 20.75H20V19.25H15.9286V20.75ZM15.9286 28.8929H24.0714V27.3929H15.9286V28.8929ZM20 1.75C30.0792 1.75 38.25 9.9208 38.25 20H39.75C39.75 9.09238 30.9076 0.250001 20 0.25V1.75ZM1.75 20C1.75 9.9208 9.9208 1.75 20 1.75V0.25C9.09238 0.249999 0.250001 9.09238 0.25 20H1.75ZM20 38.25C9.9208 38.25 1.75 30.0792 1.75 20H0.25C0.249999 30.9076 9.09238 39.75 20 39.75V38.25ZM20 39.75C30.9076 39.75 39.75 30.9076 39.75 20H38.25C38.25 30.0792 30.0792 38.25 20 38.25V39.75Z" fill="#BC1515"/>
</svg>
