<svg width="122" height="80" viewBox="0 0 122 80" fill="none" xmlns="http://www.w3.org/2000/svg">
<path d="M40.6786 66.004C40.1244 65.876 39.5623 65.748 39.0081 65.62C39.0081 65.036 39.0081 64.744 39.0081 64.164C37.7801 64 37.1661 63.92 35.9382 63.756C35.9382 63.484 35.9382 63.348 35.9382 63.076C37.0625 61.456 37.6246 60.444 38.745 58.028C39.5184 57.812 39.9052 57.708 40.6786 57.492C40.6786 59.54 40.6786 60.564 40.6786 62.612C40.9218 62.62 41.0414 62.62 41.2806 62.628C41.2806 63.244 41.2806 63.876 41.2806 64.468C41.0374 64.436 40.9178 64.42 40.6786 64.388C40.6786 65.036 40.6786 65.36 40.6786 66.004ZM37.9516 62.536C38.4021 62.548 38.6293 62.556 39.0799 62.568C39.0799 62.104 39.0799 61.876 39.0799 61.412C39.1317 60.94 39.1596 60.7 39.2114 60.22C39.2035 60.22 39.1995 60.22 39.1915 60.224C38.6931 61.224 38.4459 61.688 37.9516 62.536Z" fill="white"/>
<path d="M47.5122 58.332C47.5122 57.408 47.5122 56.5 47.5122 55.596C49.6053 55.016 50.6539 54.724 52.747 54.144C52.747 55.252 52.747 56.36 52.747 57.488C52.0573 57.6 51.7144 57.656 51.0247 57.768C51.0247 62.012 51.0247 64.136 51.0247 68.384C50.4306 68.248 49.8366 68.112 49.2425 67.976C49.2425 64.008 49.2425 62.024 49.2425 58.06C48.5528 58.164 48.2059 58.22 47.5122 58.332Z" fill="white"/>
<path d="M59.0305 67.976C57.9181 67.792 57.3639 67.7 56.2516 67.516C56.0881 68.312 56.0044 68.708 55.8409 69.484C55.1352 69.324 54.7844 69.24 54.0787 69.08C54.0787 68.852 54.0787 68.74 54.0787 68.512C55.2429 63.256 56.2595 57.972 57.2483 52.676C57.5593 52.588 57.7148 52.544 58.0218 52.456C59.1381 58.216 60.1707 63.984 61.2033 69.76C61.2033 70.032 61.2033 70.168 61.2033 70.44C60.4976 70.6 60.1468 70.472 59.4411 70.312C59.2776 69.368 59.1939 68.9 59.0305 67.976ZM57.631 59.508C57.3121 61.332 57.1526 62.224 56.8376 63.96C57.4835 63.996 57.8025 64.012 58.4484 64.048C58.1175 62.192 57.958 61.284 57.631 59.508Z" fill="white"/>
<path d="M63.6473 69.88C63.6473 64.188 63.6473 58.5 63.6473 52.808C64.2494 52.976 64.8554 53.144 65.4773 53.316C65.4773 55.76 65.4773 56.984 65.4773 59.428C65.5292 59.432 65.5571 59.436 65.6089 59.44C67.411 59.596 67.3193 56.676 67.3193 53.828C67.9333 54 68.5473 54.168 69.1732 54.34C69.1732 57.256 69.2131 59.86 67.8137 61.74C68.5792 64.384 68.9619 65.62 69.7274 67.92C69.7274 68.144 69.7274 68.256 69.7274 68.48C68.926 68.664 68.5273 68.756 67.726 68.94C67.104 66.76 66.797 65.608 66.175 63.184C65.9318 63.284 65.7126 63.292 65.4813 63.3C65.4813 65.764 65.4813 66.996 65.4813 69.456C64.8554 69.604 64.2533 69.74 63.6473 69.88Z" fill="white"/>
<path d="M71.5813 57.992C71.5813 56.984 71.5813 55.996 71.5813 55.008C73.6744 55.588 74.723 55.88 76.8161 56.46C76.8161 57.248 76.8161 58.036 76.8161 58.836C76.1264 58.724 75.7835 58.668 75.0938 58.556C75.0938 62.032 75.0938 63.772 75.0938 67.248C74.4997 67.384 73.9057 67.52 73.3116 67.656C73.3116 63.9 73.3116 62.02 73.3116 58.264C72.6219 58.16 72.275 58.104 71.5813 57.992Z" fill="white"/>
<path d="M83.0956 64.508C81.9832 64.692 81.429 64.784 80.3167 64.968C80.1532 65.428 80.0695 65.664 79.906 66.148C79.2003 66.308 78.8495 66.392 78.1438 66.552C78.1438 66.408 78.1438 66.336 78.1438 66.192C79.4116 62.132 80.0455 60.412 81.3134 57.604C81.6244 57.692 81.7799 57.736 82.0869 57.824C83.3587 61.2 83.9966 62.572 85.2684 64.688C85.2684 64.78 85.2684 64.824 85.2684 64.916C84.5627 65.076 84.2119 65.16 83.5062 65.32C83.3427 65.008 83.263 64.844 83.0956 64.508ZM81.6961 60.928C81.3772 61.736 81.2177 62.16 80.9027 63.056C81.5486 63.02 81.8676 63.004 82.5135 62.968C82.1865 62.196 82.0231 61.788 81.6961 60.928Z" fill="white"/>
<path d="M117.929 23.488H102.133L102.392 22.716C102.508 22.372 102.325 21.996 101.978 21.88L94.5062 19.356L93.4775 19.008L73.0086 12.092C72.6658 11.976 72.291 12.16 72.1754 12.508L71.5295 14.436C71.4139 14.78 71.5973 15.156 71.9441 15.272L79.7466 17.908L79.2402 20.172L72.3069 17.828C71.9641 17.712 71.5893 17.896 71.4737 18.244L71.4059 18.448C68.5273 15.904 64.7477 14.356 60.6093 14.356C56.5147 14.356 52.775 15.868 49.9084 18.364L49.8725 18.256C49.7569 17.912 49.3861 17.724 49.0432 17.836L42.098 20.14L41.6036 17.872L49.422 15.276C49.7649 15.16 49.9522 14.788 49.8406 14.444L49.2027 12.512C49.0871 12.168 48.7163 11.98 48.3734 12.092L27.8567 18.9L26.8281 19.24L19.3406 21.724C18.9977 21.84 18.8103 22.212 18.922 22.556L19.229 23.484H4.07864C3.53243 23.484 3.1138 23.8 3.2055 24.144L4.0587 27.424C4.58099 29.436 7.30007 30.912 10.4856 30.912H9.87563C9.32942 30.912 8.91079 31.228 9.00249 31.572L9.8557 34.852C10.378 36.864 13.0971 38.34 16.2826 38.34H15.1902C14.644 38.34 14.2254 38.656 14.3171 39L15.1703 42.28C15.6926 44.292 18.4116 45.768 21.5972 45.768H20.3413C19.7951 45.768 19.3765 46.084 19.4682 46.428L20.3214 49.708C20.8437 51.72 23.5628 53.196 26.7483 53.196H27.8447H35.085L28.8574 55.26C28.5305 55.368 28.3112 55.676 28.3112 56.02V68.048C28.3112 68.228 28.371 68.4 28.4786 68.536C28.5305 68.604 28.5943 68.664 28.666 68.712C28.7378 68.76 28.8175 68.796 28.9052 68.82L60.402 77.076C60.4698 77.092 60.5375 77.1 60.6053 77.1C60.6731 77.1 60.7409 77.092 60.8086 77.076L92.3054 68.82C92.3931 68.796 92.4728 68.76 92.5446 68.712C92.6164 68.664 92.6801 68.604 92.732 68.536C92.8356 68.4 92.8994 68.228 92.8994 68.048V56.04C92.8994 55.696 92.6801 55.388 92.3532 55.28L86.1256 53.216H94.1593H95.2557C98.4413 53.216 101.16 51.74 101.683 49.728L102.536 46.448C102.628 46.104 102.209 45.788 101.663 45.788H100.407C103.592 45.788 106.311 44.312 106.834 42.3L107.687 39.02C107.779 38.676 107.36 38.36 106.814 38.36H105.721C108.907 38.36 111.626 36.884 112.148 34.872L113.002 31.592C113.093 31.248 112.675 30.932 112.128 30.932H111.518C114.704 30.932 117.423 29.456 117.945 27.444L118.799 24.164C118.89 23.804 118.476 23.488 117.929 23.488ZM96.2604 23.488H92.6243L93.1107 22.424L96.2604 23.488ZM78.4907 23.488H77.1032L76.0706 25.076L75.9231 25.024C75.5403 24 75.0619 23.024 74.4918 22.104L78.4947 23.456L78.4907 23.488ZM46.6869 22.148C46.2404 22.876 45.8457 23.64 45.5148 24.436L44.8968 23.488H42.8196L42.8077 23.432L46.6869 22.148ZM28.2075 22.316L28.7338 23.488H24.6791L28.2075 22.316Z" fill="#6D6D6D"/>
<path d="M72.7973 12.056C72.8651 12.056 72.9369 12.068 73.0086 12.092L93.4775 19.008L94.5062 19.356L101.978 21.88C102.321 21.996 102.508 22.372 102.392 22.716L102.133 23.488H117.929C118.476 23.488 118.894 23.804 118.803 24.148L117.949 27.428C117.427 29.44 114.708 30.916 111.522 30.916H112.132C112.679 30.916 113.097 31.232 113.006 31.576L112.152 34.856C111.63 36.868 108.911 38.344 105.725 38.344H106.818C107.364 38.344 107.783 38.66 107.691 39.004L106.838 42.284C106.315 44.296 103.596 45.772 100.411 45.772H101.667C102.213 45.772 102.632 46.088 102.54 46.432L101.687 49.712C101.164 51.724 98.4452 53.2 95.2597 53.2H94.1633H86.1296L92.3572 55.264C92.6841 55.372 92.9034 55.68 92.9034 56.024V68.052C92.9034 68.232 92.8436 68.404 92.736 68.54C92.6841 68.608 92.6203 68.668 92.5486 68.716C92.4768 68.764 92.3971 68.8 92.3094 68.824L60.8126 77.08C60.7448 77.096 60.6771 77.104 60.6093 77.104C60.5415 77.104 60.4737 77.096 60.406 77.08L28.9092 68.824C28.8215 68.8 28.7418 68.764 28.67 68.716C28.5982 68.668 28.5345 68.608 28.4826 68.54C28.379 68.404 28.3152 68.232 28.3152 68.052V56.04C28.3152 55.696 28.5345 55.388 28.8614 55.28L35.085 53.216H27.8447H26.7483C23.5627 53.216 20.8437 51.74 20.3214 49.728L19.4682 46.448C19.3765 46.104 19.7951 45.788 20.3413 45.788H21.5972C18.4116 45.788 15.6926 44.312 15.1703 42.3L14.3171 39.02C14.2254 38.676 14.644 38.36 15.1902 38.36H16.2826C13.0971 38.36 10.378 36.884 9.85569 34.872L9.00249 31.592C8.91079 31.248 9.32941 30.932 9.87562 30.932H10.4856C7.30007 30.932 4.58098 29.456 4.0587 27.444L3.20549 24.164C3.11379 23.82 3.53242 23.504 4.07863 23.504H19.229L18.922 22.576C18.8063 22.232 18.9937 21.856 19.3406 21.744L26.828 19.26L27.8567 18.92L48.3614 12.116C48.4292 12.092 48.501 12.084 48.5688 12.084C48.8439 12.084 49.103 12.26 49.1907 12.536L49.8286 14.468C49.9443 14.812 49.7569 15.188 49.41 15.3L41.5916 17.896L42.086 20.164L49.0312 17.86C49.099 17.836 49.1708 17.828 49.2386 17.828C49.5137 17.828 49.7728 18.004 49.8605 18.28L49.8964 18.388C52.763 15.892 56.5028 14.38 60.5973 14.38C64.7358 14.38 68.5154 15.928 71.3939 18.472L71.4617 18.268C71.5534 17.992 71.8086 17.82 72.0837 17.82C72.1515 17.82 72.2232 17.832 72.295 17.856L79.2282 20.2L79.7346 17.936L71.9322 15.3C71.5893 15.184 71.4019 14.808 71.5175 14.464L72.1634 12.536C72.2671 12.228 72.5222 12.056 72.7973 12.056ZM76.0746 25.076L77.1072 23.488H78.4947L78.5026 23.46L74.4997 22.108C75.0659 23.024 75.5483 24 75.9311 25.028L76.0746 25.076ZM42.8236 23.488H44.9008L45.5188 24.436C45.8497 23.64 46.2444 22.876 46.6909 22.148L42.8116 23.436L42.8236 23.488ZM24.6791 23.488H28.7298L28.2035 22.316L24.6791 23.488ZM92.6203 23.488H96.2564L93.1028 22.424L92.6203 23.488ZM72.7973 9.25598C71.3142 9.25598 70.0025 10.204 69.528 11.612L68.9101 13.456C66.3385 12.212 63.5038 11.552 60.6053 11.552C57.7546 11.552 54.9638 12.192 52.4241 13.396L51.842 11.636C51.3756 10.216 50.0599 9.26398 48.5688 9.26398C48.202 9.26398 47.8352 9.32398 47.4843 9.43998L26.9795 16.244L25.9509 16.584L18.4635 19.068C17.6302 19.344 16.9444 19.916 16.5258 20.688H4.07464C2.87059 20.688 1.75026 21.212 1.07249 22.092C0.458499 22.888 0.251179 23.896 0.502355 24.856L1.35556 28.136C1.94164 30.388 3.88726 32.172 6.50667 33.076L7.15654 35.568C7.70275 37.664 9.4251 39.356 11.7694 40.308L12.4711 43C13.0014 45.04 14.648 46.7 16.9046 47.664L17.6262 50.432C18.4037 53.416 21.5693 55.584 25.5283 55.956C25.5283 55.984 25.5283 56.012 25.5283 56.04V68.068C25.5283 68.86 25.7954 69.64 26.2779 70.268C26.5171 70.576 26.8001 70.844 27.1231 71.06C27.458 71.284 27.8208 71.448 28.2115 71.548L59.7082 79.804C60.0033 79.88 60.3103 79.92 60.6133 79.92C60.9163 79.92 61.2233 79.88 61.5183 79.804L93.015 71.548C93.4018 71.448 93.7686 71.284 94.0995 71.06C94.4224 70.844 94.7095 70.576 94.9487 70.268C95.4311 69.64 95.6982 68.86 95.6982 68.068V56.04C95.6982 56.028 95.6982 56.02 95.6982 56.008C100.024 55.868 103.564 53.612 104.394 50.432L105.115 47.664C107.372 46.7 109.019 45.04 109.549 43L110.251 40.308C112.599 39.356 114.321 37.664 114.863 35.568L115.513 33.076C118.133 32.172 120.078 30.388 120.664 28.136L121.518 24.856C121.769 23.896 121.557 22.888 120.947 22.092C120.27 21.212 119.145 20.688 117.945 20.688H104.697C104.29 20.024 103.656 19.496 102.867 19.228L95.3952 16.704L94.3666 16.356L73.8977 9.43998C73.5429 9.31598 73.1721 9.25598 72.7973 9.25598Z" fill="#E5E5E5"/>
<path d="M19.3207 19.304L33.1274 14.72L46.9381 10.136C47.584 9.91998 47.8232 9.12798 47.4086 8.59198L44.4702 4.79598C43.1346 3.06798 40.858 2.37198 38.7848 3.05998L30.2209 5.90398L21.657 8.74798C19.5878 9.43598 18.1724 11.356 18.1246 13.54L18.0209 18.344C18.009 19.028 18.6708 19.52 19.3207 19.304Z" fill="#6D6D6D"/>
<path d="M40.4035 2.8C41.9624 2.8 43.4775 3.512 44.4702 4.796L47.4086 8.592C47.8272 9.132 47.588 9.924 46.9381 10.136L33.1274 14.72L19.3207 19.304C19.217 19.34 19.1133 19.356 19.0097 19.356C18.4794 19.356 18.0129 18.916 18.0249 18.344L18.1286 13.54C18.1764 11.352 19.5918 9.432 21.661 8.748L30.2249 5.904L38.7888 3.06C39.3151 2.884 39.8613 2.8 40.4035 2.8ZM40.4035 0C39.5543 0 38.7171 0.136 37.9117 0.404L29.3438 3.244L20.7799 6.088C17.5943 7.144 15.4095 10.116 15.3337 13.48L15.2301 18.284C15.2062 19.312 15.5889 20.28 16.3065 21.016C17.0122 21.74 17.997 22.156 19.0057 22.156C19.4084 22.156 19.8071 22.092 20.1938 21.964L34.0045 17.38L47.8152 12.796C48.9794 12.408 49.8844 11.476 50.2433 10.3C50.5981 9.124 50.3629 7.844 49.6133 6.872L46.675 3.076C45.156 1.124 42.8714 0 40.4035 0Z" fill="#E5E5E5"/>
<path d="M74.4399 10.14L88.2267 14.8L102.014 19.46C102.659 19.68 103.325 19.188 103.313 18.508L103.238 13.704C103.202 11.516 101.798 9.58797 99.733 8.89197L91.181 5.99997L82.6331 3.11197C80.5678 2.41196 78.2873 3.09596 76.9397 4.81597L73.9814 8.59597C73.5588 9.12797 73.7941 9.92397 74.4399 10.14Z" fill="#6D6D6D"/>
<path d="M80.9905 2.83998C81.5407 2.83998 82.0948 2.92798 82.6331 3.11198L91.1811 5.99998L99.729 8.88798C101.794 9.58798 103.198 11.512 103.234 13.7L103.309 18.504C103.317 19.076 102.855 19.508 102.325 19.508C102.221 19.508 102.113 19.492 102.01 19.456L88.2267 14.8L74.4399 10.14C73.7941 9.91998 73.5588 9.12798 73.9814 8.59198L76.9397 4.81198C77.9325 3.54398 79.4396 2.83998 80.9905 2.83998ZM80.9905 0.039978C78.5385 0.039978 76.262 1.14798 74.7469 3.08398L71.7886 6.86398C71.0311 7.83198 70.7879 9.11198 71.1388 10.288C71.4896 11.464 72.3907 12.404 73.5509 12.796L87.3377 17.456L101.124 22.116C101.515 22.248 101.922 22.316 102.332 22.316C103.337 22.316 104.318 21.904 105.024 21.184C105.737 20.456 106.124 19.492 106.108 18.468L106.032 13.664C105.977 10.3 103.808 7.31598 100.626 6.24398L92.0781 3.35598L83.5301 0.467978C82.7048 0.179978 81.8516 0.039978 80.9905 0.039978Z" fill="#E5E5E5"/>
<path d="M44.9008 23.488H38.7808H4.07464C3.52843 23.488 3.1098 23.804 3.2015 24.148L4.0547 27.428C4.57699 29.44 7.29608 30.916 10.4816 30.916H43.609H49.729L44.9008 23.488Z" fill="#E5E5E5"/>
<path d="M45.0483 24.456H39.1197H5.49797C4.96771 24.456 4.56503 24.728 4.65274 25.032L5.47804 27.884C5.98438 29.636 8.61974 30.92 11.7056 30.92H43.8004H49.729L45.0483 24.456Z" fill="#BCBCBC"/>
<path d="M51.9855 30.92H49.41H9.87163C9.32542 30.92 8.90679 31.236 8.99849 31.58L9.8517 34.86C10.374 36.872 13.0931 38.348 16.2786 38.348H49.406H56.8137L51.9855 30.92Z" fill="#E5E5E5"/>
<path d="M52.1331 31.888H49.6333H11.295C10.7647 31.888 10.362 32.16 10.4497 32.464L11.279 35.316C11.7854 37.068 14.4207 38.352 17.5106 38.352H49.6333H56.8177L52.1331 31.888Z" fill="#BCBCBC"/>
<path d="M58.5879 38.352H54.7246H15.1862C14.64 38.352 14.2214 38.668 14.3131 39.012L15.1663 42.292C15.6886 44.304 18.4076 45.78 21.5932 45.78H54.7206H63.4161L58.5879 38.352Z" fill="#E5E5E5"/>
<path d="M58.7155 39.32H54.9518H16.4541C15.9198 39.32 15.5171 39.592 15.6048 39.896L16.4341 42.748C16.9444 44.5 19.5918 45.784 22.6936 45.784H54.9518H63.4201L58.7155 39.32Z" fill="#BCBCBC"/>
<path d="M63.739 45.784H59.8757H20.3413C19.7951 45.784 19.3765 46.1 19.4682 46.444L20.3214 49.724C20.8437 51.736 23.5627 53.212 26.7483 53.212H59.8757H68.5712L63.739 45.784Z" fill="#E5E5E5"/>
<path d="M63.8666 46.752H60.103H21.6052C21.0709 46.752 20.6682 47.024 20.7559 47.328L21.5852 50.18C22.0956 51.932 24.7429 53.216 27.8447 53.216H60.103H68.5712L63.8666 46.752Z" fill="#BCBCBC"/>
<path d="M77.1032 23.488H83.2231H117.929C118.476 23.488 118.894 23.804 118.802 24.148L117.949 27.428C117.427 29.44 114.708 30.916 111.522 30.916H78.395H72.275L77.1032 23.488Z" fill="#E5E5E5"/>
<path d="M76.9517 24.456H82.8803H116.502C117.032 24.456 117.435 24.728 117.347 25.032L116.522 27.884C116.016 29.636 113.38 30.92 110.294 30.92H78.1996H72.271L76.9517 24.456Z" fill="#BCBCBC"/>
<path d="M70.0184 30.92H72.594H112.128C112.675 30.92 113.093 31.236 113.001 31.58L112.148 34.86C111.626 36.872 108.907 38.348 105.721 38.348H72.594H65.1863L70.0184 30.92Z" fill="#E5E5E5"/>
<path d="M69.8709 31.888H72.3707H110.705C111.235 31.888 111.638 32.16 111.55 32.464L110.721 35.316C110.215 37.068 107.579 38.352 104.489 38.352H72.3667H65.1863L69.8709 31.888Z" fill="#BCBCBC"/>
<path d="M63.4161 38.352H67.2794H106.814C107.36 38.352 107.779 38.668 107.687 39.012L106.834 42.292C106.311 44.304 103.592 45.78 100.407 45.78H67.2794H58.5839L63.4161 38.352Z" fill="#E5E5E5"/>
<path d="M63.2885 39.32H67.0522H105.55C106.084 39.32 106.487 39.592 106.399 39.896L105.57 42.748C105.06 44.5 102.412 45.784 99.3104 45.784H67.0522H58.5839L63.2885 39.32Z" fill="#BCBCBC"/>
<path d="M58.265 45.784H62.1283H101.663C102.209 45.784 102.628 46.1 102.536 46.444L101.683 49.724C101.16 51.736 98.4413 53.212 95.2557 53.212H62.1283H53.4328L58.265 45.784Z" fill="#E5E5E5"/>
<path d="M58.1374 46.752H61.901H100.399C100.933 46.752 101.336 47.024 101.248 47.328L100.419 50.18C99.9084 51.932 97.2611 53.216 94.1593 53.216H61.901H53.4328L58.1374 46.752Z" fill="#BCBCBC"/>
<path d="M46.9381 10.136C47.584 9.91998 47.8232 9.12798 47.4086 8.59198L44.4702 4.79598C43.1346 3.06798 40.8581 2.37198 38.7849 3.05998L30.2209 5.90398L21.657 8.74798C19.5878 9.43598 18.1724 11.356 18.1246 13.54L18.0209 18.344C18.005 19.028 18.6708 19.52 19.3167 19.304L33.1274 14.72L46.9381 10.136Z" fill="black"/>
<path d="M51.3516 43.756L50.7137 41.824C50.5981 41.48 50.2273 41.292 49.8844 41.404L46.9461 42.38L46.4517 40.112L50.7217 38.696C51.0646 38.58 51.252 38.208 51.1403 37.864L50.5024 35.932C50.3868 35.588 50.016 35.4 49.6731 35.512L45.734 36.82L45.2397 34.552L50.5104 32.804C50.8533 32.688 51.0406 32.316 50.929 31.972L50.2911 30.04C50.1755 29.696 49.8047 29.508 49.4618 29.62L44.522 31.26L44.0276 28.992L50.3031 26.908C50.6459 26.792 50.8333 26.42 50.7217 26.076L50.0838 24.144C49.9682 23.8 49.5974 23.612 49.2545 23.724L43.31 25.696L42.8156 23.428L50.0918 21.012C50.4346 20.896 50.622 20.524 50.5104 20.18L49.8725 18.248C49.7569 17.904 49.3861 17.716 49.0432 17.828L42.098 20.132L41.6036 17.864L49.422 15.268C49.7648 15.152 49.9522 14.78 49.8406 14.436L49.2027 12.504C49.0871 12.16 48.7163 11.972 48.3734 12.084L27.8567 18.9L26.828 19.24L19.3406 21.724C18.9977 21.84 18.8103 22.212 18.922 22.556L19.5599 24.488C19.6755 24.832 20.0463 25.02 20.3892 24.908L28.2075 22.312L29.1564 24.428L22.2112 26.732C21.8683 26.848 21.6809 27.22 21.7926 27.564L22.4305 29.496C22.5461 29.84 22.9169 30.028 23.2597 29.916L30.5359 27.5L31.4848 29.616L25.5403 31.588C25.1974 31.704 25.01 32.076 25.1216 32.42L25.7595 34.352C25.8752 34.696 26.2459 34.884 26.5888 34.772L32.8642 32.688L33.8131 34.804L28.8733 36.444C28.5305 36.56 28.3431 36.932 28.4547 37.276L29.0926 39.208C29.2082 39.552 29.579 39.74 29.9219 39.628L35.1926 37.88L36.1415 39.996L32.2024 41.304C31.8595 41.42 31.6722 41.792 31.7838 42.136L32.4217 44.068C32.5373 44.412 32.9081 44.6 33.251 44.488L37.521 43.072L38.4699 45.188L35.5315 46.164C35.1886 46.28 35.0012 46.652 35.1129 46.996L35.7508 48.928C35.8664 49.272 36.2372 49.46 36.5801 49.348L43.7525 46.968L47.6597 45.672L50.929 44.588C51.2799 44.472 51.4673 44.1 51.3516 43.756Z" fill="black"/>
<path d="M74.4399 10.14C73.7941 9.92 73.5588 9.128 73.9814 8.592L76.9397 4.812C78.2873 3.092 80.5678 2.408 82.6331 3.108L91.181 6L99.729 8.888C101.794 9.588 103.198 11.512 103.234 13.7L103.309 18.504C103.321 19.188 102.655 19.676 102.01 19.456L88.2267 14.8L74.4399 10.14Z" fill="black"/>
<path d="M69.843 43.732L70.4889 41.804C70.6045 41.46 70.9793 41.272 71.3221 41.388L74.2565 42.38L74.7629 40.116L70.5008 38.676C70.158 38.56 69.9706 38.184 70.0862 37.84L70.7321 35.912C70.8477 35.568 71.2225 35.38 71.5654 35.496L75.4965 36.824L76.0028 34.56L70.7401 32.78C70.3972 32.664 70.2098 32.288 70.3254 31.944L70.9713 30.016C71.0869 29.672 71.4617 29.484 71.8046 29.6L76.7364 31.268L77.2427 29.004L70.9793 26.888C70.6364 26.772 70.449 26.396 70.5646 26.052L71.2105 24.124C71.3261 23.78 71.7009 23.592 72.0438 23.708L77.9763 25.712L78.4827 23.448L71.2185 20.992C70.8756 20.876 70.6882 20.5 70.8038 20.156L71.4497 18.228C71.5654 17.884 71.9401 17.696 72.283 17.812L79.2163 20.156L79.7226 17.892L71.9202 15.256C71.5773 15.14 71.3899 14.764 71.5055 14.42L72.1514 12.492C72.2671 12.148 72.6418 11.96 72.9847 12.076L93.4536 18.992L94.4822 19.34L101.954 21.864C102.297 21.98 102.484 22.356 102.368 22.7L101.722 24.628C101.607 24.972 101.232 25.16 100.889 25.044L93.0868 22.408L92.1259 24.52L99.0592 26.864C99.4021 26.98 99.5895 27.356 99.4739 27.7L98.828 29.628C98.7123 29.972 98.3376 30.16 97.9947 30.044L90.7504 27.6L89.7896 29.708L95.7221 31.712C96.065 31.828 96.2524 32.204 96.1368 32.548L95.4909 34.476C95.3753 34.82 95.0005 35.008 94.6576 34.892L88.3942 32.776L87.4333 34.888L92.3652 36.556C92.708 36.672 92.8954 37.048 92.7798 37.392L92.1339 39.32C92.0183 39.664 91.6435 39.852 91.3006 39.736L86.0379 37.956L85.0771 40.064L89.0082 41.392C89.351 41.508 89.5384 41.884 89.4228 42.228L88.7769 44.156C88.6613 44.5 88.2865 44.688 87.9437 44.572L83.6816 43.132L82.7208 45.244L85.6552 46.236C85.998 46.352 86.1854 46.728 86.0698 47.072L85.4239 49C85.3083 49.344 84.9335 49.532 84.5906 49.416L77.4301 46.996L73.5309 45.68L70.2696 44.576C69.9148 44.452 69.7274 44.08 69.843 43.732Z" fill="black"/>
<path d="M60.6053 47.152C69.6332 47.152 76.9517 39.8095 76.9517 30.752C76.9517 21.6945 69.6332 14.352 60.6053 14.352C51.5774 14.352 44.2589 21.6945 44.2589 30.752C44.2589 39.8095 51.5774 47.152 60.6053 47.152Z" fill="#E5E5E5"/>
<path d="M60.6053 20.832C66.0554 20.832 70.4929 25.284 70.4929 30.752C70.4929 36.22 66.0554 40.672 60.6053 40.672C55.1552 40.672 50.7177 36.22 50.7177 30.752C50.7177 25.28 55.1512 20.832 60.6053 20.832ZM60.6053 17.632C53.385 17.632 47.5282 23.508 47.5282 30.752C47.5282 37.996 53.385 43.872 60.6053 43.872C67.8256 43.872 73.6824 37.996 73.6824 30.752C73.6824 23.508 67.8256 17.632 60.6053 17.632Z" fill="#BC1515"/>
<path d="M60.3541 44.836L28.8574 55.28C28.5304 55.388 28.3112 55.696 28.3112 56.04V68.068C28.3112 68.432 28.5544 68.752 28.9052 68.844L60.402 77.1C60.5335 77.136 60.6731 77.136 60.8046 77.1L92.3014 68.844C92.6522 68.752 92.8954 68.432 92.8954 68.068V56.04C92.8954 55.696 92.6761 55.388 92.3492 55.28L60.8525 44.836C60.693 44.78 60.5176 44.78 60.3541 44.836Z" fill="white"/>
<path d="M60.6053 46.016L91.7033 56.328V67.76L60.6053 75.912L29.5072 67.76V56.328L60.6053 46.016ZM60.6053 44.792C60.5216 44.792 60.4378 44.804 60.3541 44.832L28.8574 55.276C28.5304 55.384 28.3112 55.692 28.3112 56.036V68.064C28.3112 68.428 28.5544 68.748 28.9052 68.84L60.4019 77.096C60.4697 77.112 60.5375 77.12 60.6053 77.12C60.6731 77.12 60.7408 77.112 60.8086 77.096L92.3053 68.84C92.6562 68.748 92.8994 68.428 92.8994 68.064V56.04C92.8994 55.696 92.6801 55.388 92.3532 55.28L60.8565 44.836C60.7727 44.808 60.689 44.792 60.6053 44.792Z" fill="#BC1515"/>
<path d="M61.7256 23.552H59.481C59.2497 23.552 59.0624 23.74 59.0624 23.972V25.164C58.6078 25.292 58.1693 25.472 57.7586 25.708L56.9174 24.864C56.8337 24.78 56.726 24.74 56.6184 24.74C56.5107 24.74 56.4031 24.78 56.3193 24.864L54.7326 26.456C54.5691 26.62 54.5691 26.888 54.7326 27.052L55.5738 27.896C55.3386 28.308 55.1592 28.748 55.0316 29.204H53.8435C53.6122 29.204 53.4248 29.392 53.4248 29.624V31.876C53.4248 32.108 53.6122 32.296 53.8435 32.296H55.0316C55.1592 32.752 55.3386 33.192 55.5738 33.604L54.7326 34.448C54.5691 34.612 54.5691 34.88 54.7326 35.044L56.3193 36.636C56.4031 36.72 56.5107 36.76 56.6184 36.76C56.726 36.76 56.8337 36.72 56.9174 36.636L57.7586 35.792C58.1693 36.028 58.6078 36.208 59.0624 36.336V37.528C59.0624 37.76 59.2497 37.948 59.481 37.948H61.7256C61.9569 37.948 62.1442 37.76 62.1442 37.528V36.336C62.5988 36.208 63.0373 36.028 63.448 35.792L64.2892 36.636C64.3729 36.72 64.4806 36.76 64.5882 36.76C64.6959 36.76 64.8035 36.72 64.8873 36.636L66.4741 35.044C66.6375 34.88 66.6375 34.612 66.4741 34.448L65.6328 33.604C65.868 33.192 66.0474 32.752 66.175 32.296H67.3631C67.5944 32.296 67.7818 32.108 67.7818 31.876V29.624C67.7818 29.392 67.5944 29.204 67.3631 29.204H66.175C66.0474 28.748 65.868 28.308 65.6328 27.896L66.4741 27.052C66.6375 26.888 66.6375 26.62 66.4741 26.456L64.8873 24.864C64.8035 24.78 64.6959 24.74 64.5882 24.74C64.4806 24.74 64.3729 24.78 64.2892 24.864L63.448 25.708C63.0373 25.472 62.5988 25.292 62.1442 25.164V23.972C62.1442 23.74 61.9569 23.552 61.7256 23.552ZM60.6053 34.772C58.3926 34.772 56.5984 32.972 56.5984 30.752C56.5984 28.532 58.3926 26.732 60.6053 26.732C62.818 26.732 64.6122 28.532 64.6122 30.752C64.6122 32.972 62.818 34.772 60.6053 34.772Z" fill="#878787"/>
<path d="M60.3581 47.172L30.8548 56.764C30.5279 56.872 30.3046 57.18 30.3046 57.524V66.628C30.3046 66.992 30.5479 67.308 30.8987 67.4L60.402 75.152C60.5335 75.188 60.6731 75.188 60.8046 75.152L90.3079 67.4C90.6588 67.308 90.902 66.988 90.902 66.628V57.524C90.902 57.176 90.6787 56.868 90.3518 56.764L60.8485 47.172C60.689 47.12 60.5176 47.12 60.3581 47.172Z" fill="black"/>
<path d="M40.6786 66.004C40.1244 65.876 39.5623 65.748 39.0081 65.62C39.0081 65.036 39.0081 64.744 39.0081 64.164C37.7801 64 37.1661 63.92 35.9382 63.756C35.9382 63.484 35.9382 63.348 35.9382 63.076C37.0625 61.456 37.6246 60.444 38.745 58.028C39.5184 57.812 39.9052 57.708 40.6786 57.492C40.6786 59.54 40.6786 60.564 40.6786 62.612C40.9218 62.62 41.0414 62.62 41.2806 62.628C41.2806 63.244 41.2806 63.876 41.2806 64.468C41.0374 64.436 40.9178 64.42 40.6786 64.388C40.6786 65.036 40.6786 65.36 40.6786 66.004ZM37.9516 62.536C38.4021 62.548 38.6293 62.556 39.0799 62.568C39.0799 62.104 39.0799 61.876 39.0799 61.412C39.1317 60.94 39.1596 60.7 39.2114 60.22C39.2035 60.22 39.1995 60.22 39.1915 60.224C38.6931 61.224 38.4459 61.688 37.9516 62.536Z" fill="white"/>
<path d="M47.5122 58.332C47.5122 57.408 47.5122 56.5 47.5122 55.596C49.6053 55.016 50.6539 54.724 52.747 54.144C52.747 55.252 52.747 56.36 52.747 57.488C52.0573 57.6 51.7144 57.656 51.0247 57.768C51.0247 62.012 51.0247 64.136 51.0247 68.384C50.4306 68.248 49.8366 68.112 49.2425 67.976C49.2425 64.008 49.2425 62.024 49.2425 58.06C48.5528 58.164 48.2059 58.22 47.5122 58.332Z" fill="white"/>
<path d="M59.0305 67.976C57.9181 67.792 57.3639 67.7 56.2516 67.516C56.0881 68.312 56.0044 68.708 55.8409 69.484C55.1352 69.324 54.7844 69.24 54.0787 69.08C54.0787 68.852 54.0787 68.74 54.0787 68.512C55.2429 63.256 56.2595 57.972 57.2483 52.676C57.5593 52.588 57.7148 52.544 58.0218 52.456C59.1381 58.216 60.1707 63.984 61.2033 69.76C61.2033 70.032 61.2033 70.168 61.2033 70.44C60.4976 70.6 60.1468 70.472 59.4411 70.312C59.2776 69.368 59.1939 68.9 59.0305 67.976ZM57.631 59.508C57.3121 61.332 57.1526 62.224 56.8376 63.96C57.4835 63.996 57.8025 64.012 58.4484 64.048C58.1175 62.192 57.958 61.284 57.631 59.508Z" fill="white"/>
<path d="M63.6473 69.88C63.6473 64.188 63.6473 58.5 63.6473 52.808C64.2494 52.976 64.8554 53.144 65.4773 53.316C65.4773 55.76 65.4773 56.984 65.4773 59.428C65.5292 59.432 65.5571 59.436 65.6089 59.44C67.411 59.596 67.3193 56.676 67.3193 53.828C67.9333 54 68.5473 54.168 69.1732 54.34C69.1732 57.256 69.2131 59.86 67.8137 61.74C68.5792 64.384 68.9619 65.62 69.7274 67.92C69.7274 68.144 69.7274 68.256 69.7274 68.48C68.926 68.664 68.5273 68.756 67.726 68.94C67.104 66.76 66.797 65.608 66.175 63.184C65.9318 63.284 65.7126 63.292 65.4813 63.3C65.4813 65.764 65.4813 66.996 65.4813 69.456C64.8554 69.604 64.2533 69.74 63.6473 69.88Z" fill="white"/>
<path d="M71.5813 57.992C71.5813 56.984 71.5813 55.996 71.5813 55.008C73.6744 55.588 74.723 55.88 76.8161 56.46C76.8161 57.248 76.8161 58.036 76.8161 58.836C76.1264 58.724 75.7835 58.668 75.0938 58.556C75.0938 62.032 75.0938 63.772 75.0938 67.248C74.4997 67.384 73.9057 67.52 73.3116 67.656C73.3116 63.9 73.3116 62.02 73.3116 58.264C72.6219 58.16 72.275 58.104 71.5813 57.992Z" fill="white"/>
<path d="M83.0956 64.508C81.9832 64.692 81.429 64.784 80.3167 64.968C80.1532 65.428 80.0695 65.664 79.906 66.148C79.2003 66.308 78.8495 66.392 78.1438 66.552C78.1438 66.408 78.1438 66.336 78.1438 66.192C79.4116 62.132 80.0455 60.412 81.3134 57.604C81.6244 57.692 81.7799 57.736 82.0869 57.824C83.3587 61.2 83.9966 62.572 85.2684 64.688C85.2684 64.78 85.2684 64.824 85.2684 64.916C84.5627 65.076 84.2119 65.16 83.5062 65.32C83.3427 65.008 83.263 64.844 83.0956 64.508ZM81.6961 60.928C81.3772 61.736 81.2177 62.16 80.9027 63.056C81.5486 63.02 81.8676 63.004 82.5135 62.968C82.1865 62.196 82.0231 61.788 81.6961 60.928Z" fill="white"/>
<path d="M88.9125 59.144V58.448L88.3144 58.104L87.7164 58.448V59.144L88.3144 59.488L88.9125 59.144Z" fill="#6D6D6D"/>
<path d="M88.9125 65.544V64.848L88.3144 64.504L87.7164 64.848V65.544L88.3144 65.888L88.9125 65.544Z" fill="#6D6D6D"/>
<path d="M33.4942 59.144V58.448L32.8961 58.104L32.2981 58.448V59.144L32.8961 59.488L33.4942 59.144Z" fill="#6D6D6D"/>
<path d="M33.4942 65.544V64.848L32.8961 64.504L32.2981 64.848V65.544L32.8961 65.888L33.4942 65.544Z" fill="#6D6D6D"/>
</svg>
