<svg width="14" height="14" viewBox="0 0 14 14" fill="none" xmlns="http://www.w3.org/2000/svg">
<path fill-rule="evenodd" clip-rule="evenodd" d="M9.8 6.3H7.7V4.2C7.7 3.8129 7.3864 3.5 7 3.5C6.6136 3.5 6.3 3.8129 6.3 4.2V7C6.3 7.3871 6.6136 7.7 7 7.7H9.8C10.1871 7.7 10.5 7.3871 10.5 7C10.5 6.6129 10.1871 6.3 9.8 6.3ZM7 12.6C3.9123 12.6 1.4 10.0877 1.4 7C1.4 3.9123 3.9123 1.4 7 1.4C10.0877 1.4 12.6 3.9123 12.6 7C12.6 10.0877 10.0877 12.6 7 12.6ZM7 0C3.1402 0 0 3.1402 0 7C0 10.8598 3.1402 14 7 14C10.8598 14 14 10.8598 14 7C14 3.1402 10.8598 0 7 0Z" fill="#BC1515"/>
</svg>
