<svg width="34" height="34" viewBox="0 0 34 34" fill="none" xmlns="http://www.w3.org/2000/svg">
<path d="M28.3554 16.0338C28.0806 16.0338 27.8107 16.0546 27.5462 16.0927L27.2004 14.8019C27.5763 14.739 27.962 14.7057 28.3555 14.7057C28.9028 14.7057 29.4489 14.7697 29.9784 14.8959C30.2344 14.9569 30.5024 14.861 30.6614 14.6513C32.2036 12.6184 32.2921 11.4062 31.0118 9.8475C29.3595 7.83606 27.8393 6.80251 26.3641 6.68789C25.2589 6.60176 24.1947 7.03161 23.1071 8.00094C22.9641 8.12838 22.8831 8.31146 22.8848 8.50311C22.8867 8.69476 22.9712 8.87618 23.1167 9.00089L24.201 9.93031C24.1567 10.1228 24.1186 10.3046 24.0833 10.473C23.9926 10.9058 23.9209 11.2463 23.8063 11.5288C23.6499 11.4377 23.4959 11.3476 23.3445 11.2589C21.1161 9.95395 19.3562 8.92313 17.5644 9.41898C16.3741 9.74836 15.3296 10.7271 14.2997 12.4848L9.26327 11.0435L8.95229 10.0816C8.63221 9.09133 7.94869 8.55012 6.80153 8.37893L1.105 7.41411C0.866004 7.37347 0.623953 7.46657 0.473476 7.65663C0.323 7.84662 0.28807 8.10354 0.382234 8.32693C1.801 11.6899 2.33843 12.5783 4.36362 13.5846L9.25185 16.0132C10.5132 16.6399 10.965 17.1189 11.3536 18.242L12.3128 21.0143H11.2487C10.9188 18.2139 8.53214 16.0338 5.64453 16.0338C2.53214 16.0338 0 18.566 0 21.6784C0 24.7908 2.53214 27.3229 5.64453 27.3229C8.53221 27.3229 10.9188 25.1429 11.2487 22.3424H12.7724L13.4219 24.2197C13.5145 24.4872 13.7664 24.6667 14.0494 24.6667H21.0792C21.2911 24.6667 21.4904 24.5655 21.6154 24.3943C21.7405 24.2231 21.7763 24.0026 21.7118 23.8007C21.4934 23.1162 21.3826 22.4022 21.3826 21.6784C21.3826 18.6908 23.2714 16.1365 25.9174 15.1459L26.2635 16.4374C24.184 17.2704 22.7107 19.3049 22.7107 21.6784C22.7107 24.7908 25.2429 27.323 28.3553 27.323C31.4677 27.323 33.9998 24.7908 33.9998 21.6784C33.9998 18.566 31.4678 16.0338 28.3554 16.0338ZM5.64453 25.9948C3.26446 25.9948 1.32812 24.0584 1.32812 21.6784C1.32812 19.2983 3.26446 17.362 5.64453 17.362C7.79881 17.362 9.58939 18.9484 9.9098 21.0143H8.55757C8.25469 19.6853 7.06403 18.6901 5.64453 18.6901C3.99679 18.6901 2.65625 20.0306 2.65625 21.6784C2.65625 23.3261 3.99679 24.6667 5.64453 24.6667C7.06403 24.6667 8.25463 23.6715 8.55757 22.3424H9.9098C9.58939 24.4083 7.79881 25.9948 5.64453 25.9948ZM5.64453 22.3424H7.1657C6.90897 22.9281 6.32393 23.3385 5.64453 23.3385C4.72912 23.3385 3.98437 22.5938 3.98437 21.6784C3.98437 20.763 4.72912 20.0182 5.64453 20.0182C6.32393 20.0182 6.90897 20.4286 7.1657 21.0143H5.64453C5.27777 21.0143 4.98047 21.3117 4.98047 21.6784C4.98047 22.0451 5.27777 22.3424 5.64453 22.3424ZM17.9187 10.699C19.169 10.3531 20.7156 11.2586 22.6734 12.4049C22.7256 12.4355 22.7786 12.4665 22.8314 12.4974C22.7192 12.5522 22.5956 12.6062 22.4575 12.6601L19.2662 13.906L15.6224 12.8633C16.3943 11.6226 17.1492 10.9119 17.9187 10.699ZM21.4593 17.0631H19.2905C18.9238 17.0631 18.6264 17.3605 18.6264 17.7272C18.6264 18.0939 18.9238 18.3913 19.2905 18.3913H20.7339C20.5496 18.8169 20.4001 19.2607 20.2887 19.7195H17.7965C17.4298 19.7195 17.1325 20.0168 17.1325 20.3835C17.1325 20.7502 17.4298 21.0476 17.7965 21.0476H20.0784C20.0627 21.2558 20.0546 21.4661 20.0546 21.6784C20.0546 22.2387 20.1104 22.7942 20.2211 23.3385H14.5224L12.6087 17.8078C12.0433 16.1736 11.2003 15.4983 9.84273 14.8237L4.95457 12.3951C3.58282 11.7136 3.09832 11.2029 2.08741 8.92751L6.58644 9.68959C6.59108 9.69038 6.59567 9.69112 6.60031 9.69178C7.33317 9.80002 7.54813 10.0558 7.68858 10.4901L8.10847 11.7889C8.17653 11.9994 8.34494 12.1622 8.55764 12.2231L19.1162 15.2445C19.2559 15.2846 19.4051 15.2775 19.5404 15.2247L22.9404 13.8973C24.8812 13.1397 25.1138 12.0303 25.3832 10.7456C25.442 10.465 25.5029 10.1748 25.5855 9.86138C25.6505 9.61521 25.5689 9.35357 25.3756 9.18782L24.5951 8.51878C25.1725 8.13203 25.7135 7.97 26.2611 8.01203C27.3415 8.09604 28.5946 8.99724 29.9855 10.6905C30.3149 11.0916 30.5779 11.4126 30.5746 11.874L29.6705 11.5019C29.331 11.3622 28.9432 11.5241 28.8036 11.8631C28.664 12.2023 28.8258 12.5904 29.1649 12.73L30.1101 13.1191C30.0339 13.2424 29.9478 13.3728 29.8495 13.5123C29.3577 13.4228 28.857 13.3777 28.3553 13.3777C25.4851 13.3776 22.9506 14.8422 21.4593 17.0631ZM28.3554 25.9948C25.9753 25.9948 24.039 24.0584 24.039 21.6784C24.039 19.9192 25.0974 18.4034 26.6104 17.7318L26.9601 19.0369C26.0136 19.539 25.3671 20.5343 25.3671 21.6784C25.3671 23.3261 26.7077 24.6667 28.3554 24.6667C30.0031 24.6667 31.3437 23.3261 31.3437 21.6784C31.3437 20.0306 30.0031 18.6901 28.3554 18.6901C28.3177 18.6901 28.2803 18.6916 28.243 18.6929L27.8931 17.3871C28.0451 17.3708 28.1992 17.362 28.3555 17.362C30.7355 17.362 32.6719 19.2983 32.6719 21.6784C32.6719 24.0584 30.7355 25.9948 28.3554 25.9948ZM27.714 21.8502C27.7935 22.1469 28.0617 22.3426 28.355 22.3426C28.4118 22.3426 28.4697 22.3353 28.5273 22.3198C28.8815 22.2248 29.0918 21.8607 28.9968 21.5065L28.603 20.0367C29.4014 20.1567 30.0156 20.8471 30.0156 21.6784C30.0156 22.5938 29.2708 23.3385 28.3554 23.3385C27.44 23.3385 26.6952 22.5938 26.6952 21.6784C26.6952 21.1541 26.9397 20.6861 27.3205 20.3817L27.714 21.8502Z" fill="white"/>
<path d="M16.3024 17.0631H16.3019C15.9352 17.0631 15.6381 17.3605 15.6381 17.7272C15.6381 18.0939 15.9356 18.3912 16.3024 18.3912C16.6692 18.3912 16.9665 18.0939 16.9665 17.7272C16.9665 17.3605 16.6692 17.0631 16.3024 17.0631Z" fill="white"/>
</svg>
