<svg width="34" height="34" viewBox="0 0 34 34" fill="none" xmlns="http://www.w3.org/2000/svg">
<g clip-path="url(#clip0)">
<path d="M25.116 27.4649C24.8446 27.7116 24.8248 28.1314 25.0715 28.4028C25.2026 28.5469 25.3825 28.62 25.5631 28.62C25.7225 28.62 25.8826 28.563 26.0098 28.4472C26.2812 28.2005 26.3012 27.7805 26.0545 27.5092C25.8078 27.2378 25.3877 27.2177 25.1164 27.4645L25.116 27.4649Z" fill="white"/>
<path d="M23.088 17.0624L24.4966 18.471C24.747 18.7214 25.0804 18.8592 25.4357 18.8592C25.791 18.8592 26.1245 18.7214 26.3748 18.471L33.4181 11.4278C33.7933 11.0525 34 10.5523 34 10.0192C34 9.48599 33.7934 8.98569 33.4181 8.61044L27.7834 2.97579C27.0067 2.19905 25.7429 2.19925 24.9661 2.97579L17.9229 10.0191C17.4051 10.5369 17.4051 11.3795 17.9229 11.8973L19.3316 13.3059C19.5034 13.4778 19.746 13.535 19.9656 13.479L17.0004 16.3109L14.0349 13.4789C14.0884 13.4926 14.1435 13.5004 14.1995 13.5004C14.3756 13.5004 14.5446 13.4304 14.6691 13.3059L16.0777 11.8973C16.5955 11.3795 16.5956 10.5369 16.0777 10.019L9.03451 2.97579C8.65932 2.6006 8.15903 2.39395 7.62586 2.39395C7.0927 2.39395 6.59241 2.60054 6.21722 2.97579L0.582503 8.61037C-0.194168 9.38711 -0.194168 10.6509 0.582503 11.4277L7.6258 18.471C7.88471 18.7298 8.22484 18.8593 8.56489 18.8593C8.90495 18.8593 9.24508 18.7299 9.50399 18.471L10.9126 17.0623C11.0371 16.9378 11.1071 16.7689 11.1071 16.5928C11.1071 16.5367 11.0993 16.4815 11.0856 16.4281L13.8485 19.3211L8.62399 24.3105C7.62766 24.2601 6.61445 24.6143 5.85518 25.3736C5.1653 26.0634 4.78546 26.9806 4.78546 27.9562C4.78546 28.9317 5.16537 29.849 5.85518 30.5388C6.5673 31.2509 7.50235 31.6068 8.43773 31.6068C9.37291 31.6068 10.3083 31.2507 11.0202 30.5388C11.7101 29.849 12.0899 28.9319 12.0899 27.9562C12.0899 27.8933 12.0882 27.8305 12.0851 27.7681L17.0003 22.6214L21.9155 27.768C21.9124 27.8305 21.9107 27.8932 21.9107 27.9562C21.9107 28.9317 22.2906 29.8489 22.9804 30.5387C23.6924 31.2507 24.6276 31.6067 25.5629 31.6067C26.4982 31.6067 27.4334 31.2507 28.1454 30.5387C28.8352 29.8489 29.2151 28.9317 29.2151 27.9562C29.2151 26.9806 28.8352 26.0634 28.1454 25.3735C27.3861 24.6143 26.3729 24.2601 25.3767 24.3105L20.1522 19.3211L22.915 16.4281C22.9013 16.4815 22.8935 16.5367 22.8935 16.5928C22.8935 16.7689 22.9635 16.9379 23.088 17.0624ZM24.4966 5.3236L31.0704 11.8973L30.1312 12.8364L23.5575 6.26276L24.4966 5.3236ZM26.8444 3.91489L32.479 9.54954C32.6034 9.67391 32.6719 9.84066 32.6719 10.019C32.6719 10.1974 32.6034 10.3642 32.479 10.4886L32.0095 10.9581L25.4357 4.38444L25.9053 3.91489C26.1642 3.65611 26.5854 3.65597 26.8444 3.91489ZM18.862 10.9582L22.6183 7.20186L29.192 13.7755L25.4357 17.5319L24.4609 16.5571C25.4344 15.2194 25.2899 13.6297 24.0271 12.3668C22.7641 11.1039 21.1744 10.9592 19.8366 11.9329L18.862 10.9582ZM1.52167 9.54954L7.15632 3.91489C7.28069 3.79051 7.44743 3.72205 7.62586 3.72205C7.80429 3.72205 7.97104 3.79051 8.09541 3.91489L8.56496 4.38444L1.99128 10.9581L1.52173 10.4886C1.26275 10.2297 1.26275 9.80838 1.52167 9.54954ZM8.56496 17.5319L4.80864 13.7756L5.98268 12.6016C6.24199 12.3423 6.24199 11.9218 5.98268 11.6624C5.72337 11.4032 5.30289 11.4032 5.04351 11.6624L3.86948 12.8364L2.93031 11.8973L9.50399 5.3236L10.4432 6.26283L9.26945 7.43653C9.01007 7.69585 9.01007 8.11632 9.26945 8.3757C9.39914 8.50532 9.56907 8.5702 9.739 8.5702C9.90893 8.5702 10.0789 8.50532 10.2085 8.3757L11.3823 7.20193L15.1386 10.9582L14.1638 11.9331C13.6305 11.5452 13.048 11.3279 12.4518 11.298C11.5731 11.2543 10.7167 11.6236 9.97354 12.3669C8.71072 13.6297 8.56616 15.2195 9.53965 16.5572L8.56496 17.5319ZM10.0811 29.5996C9.17496 30.5058 7.70044 30.5058 6.79428 29.5996C6.35534 29.1606 6.11356 28.577 6.11356 27.9562C6.11356 27.3353 6.35534 26.7516 6.79428 26.3127C7.24736 25.8596 7.84254 25.6331 8.43766 25.6331C9.03285 25.6331 9.62797 25.8596 10.0811 26.3127C10.5201 26.7516 10.7618 27.3353 10.7618 27.9562C10.7618 28.577 10.5201 29.1606 10.0811 29.5996ZM11.6789 26.2705C11.5086 25.944 11.2881 25.6415 11.0203 25.3736C10.7493 25.1027 10.4459 24.8836 10.1227 24.7158L14.7658 20.2816L16.0822 21.6599L11.6789 26.2705ZM27.887 27.9561C27.887 28.577 27.6453 29.1606 27.2063 29.5996C26.3002 30.5058 24.8257 30.5058 23.9195 29.5996C23.4805 29.1606 23.2388 28.577 23.2388 27.9562C23.2388 27.3353 23.4805 26.7516 23.9195 26.3127C24.8257 25.4065 26.3002 25.4065 27.2064 26.3127C27.6453 26.7517 27.887 27.3353 27.887 27.9561ZM22.9804 25.3736C22.7125 25.6415 22.492 25.944 22.3217 26.2705L10.4732 13.864C10.5786 13.6828 10.7223 13.4963 10.9127 13.306C11.0962 13.1224 11.2825 12.9761 11.4706 12.8664L23.878 24.7158C23.5547 24.8836 23.2513 25.1027 22.9804 25.3736ZM17.9618 17.2292L22.53 12.8665C22.7112 12.9718 22.8976 13.1156 23.088 13.306C23.2783 13.4963 23.4222 13.6828 23.5275 13.864L19.1919 18.4039L17.9618 17.2292Z" fill="white"/>
<path d="M7.96799 27.4863C7.70867 27.7456 7.70867 28.1661 7.96799 28.4255L7.96832 28.4258C8.09795 28.5554 8.26781 28.6203 8.43768 28.6203C8.60761 28.6203 8.77761 28.5553 8.9073 28.4256C9.16662 28.1663 9.16649 27.7457 8.90717 27.4863C8.64785 27.2271 8.22737 27.2271 7.96799 27.4863Z" fill="white"/>
<path d="M7.62641 9.35498H7.62595C7.25919 9.35498 6.96215 9.65235 6.96215 10.019C6.96215 10.3857 7.25965 10.6831 7.62641 10.6831C7.99317 10.6831 8.29047 10.3857 8.29047 10.019C8.29047 9.65235 7.99317 9.35498 7.62641 9.35498Z" fill="white"/>
</g>
<defs>
<clipPath id="clip0">
<rect width="34" height="34" fill="white"/>
</clipPath>
</defs>
</svg>
