<svg width="34" height="34" viewBox="0 0 34 34" fill="none" xmlns="http://www.w3.org/2000/svg">
<g clip-path="url(#clip0)">
<path d="M14.2565 26.7502C12.6077 26.7502 11.2663 28.0917 11.2663 29.7405C11.2663 31.3893 12.6077 32.7307 14.2565 32.7307C15.9053 32.7307 17.2467 31.3893 17.2467 29.7405C17.2466 28.0917 15.9052 26.7502 14.2565 26.7502ZM14.2565 31.061C13.5283 31.061 12.9358 30.4685 12.9358 29.7403C12.9358 29.0121 13.5283 28.4197 14.2565 28.4197C14.9846 28.4197 15.5771 29.0122 15.5771 29.7403C15.5771 30.4686 14.9846 31.061 14.2565 31.061Z" fill="white"/>
<path d="M24.745 26.7502C23.0962 26.7502 21.7548 28.0917 21.7548 29.7405C21.7548 31.3893 23.0962 32.7307 24.745 32.7307C26.3938 32.7307 27.7352 31.3893 27.7352 29.7405C27.7352 28.0917 26.3938 26.7502 24.745 26.7502ZM24.745 31.061C24.0168 31.061 23.4244 30.4685 23.4244 29.7403C23.4244 29.0121 24.0169 28.4197 24.745 28.4197C25.4732 28.4197 26.0656 29.0122 26.0656 29.7403C26.0656 30.4686 25.4732 31.061 24.745 31.061Z" fill="white"/>
<path d="M25.4812 11.0071H13.5182C13.0571 11.0071 12.6834 11.3808 12.6834 11.8419C12.6834 12.3029 13.0572 12.6767 13.5182 12.6767H25.4812C25.9423 12.6767 26.316 12.3029 26.316 11.8419C26.316 11.3807 25.9423 11.0071 25.4812 11.0071Z" fill="white"/>
<path d="M24.8301 15.3423H14.1693C13.7083 15.3423 13.3345 15.716 13.3345 16.1771C13.3345 16.6381 13.7083 17.0119 14.1693 17.0119H24.83C25.2911 17.0119 25.6648 16.6381 25.6648 16.1771C25.6648 15.7161 25.2911 15.3423 24.8301 15.3423Z" fill="white"/>
<path d="M33.6243 7.2877C33.3059 6.89696 32.8342 6.67291 32.3301 6.67291H6.32707L5.80192 4.12363C5.69229 3.59185 5.32958 3.14534 4.83146 2.92905L1.16736 1.33862C0.744348 1.15487 0.252742 1.34898 0.0692612 1.77185C-0.114419 2.19486 0.079687 2.68653 0.502496 2.87001L4.16667 4.46051L8.2059 24.0677C8.36501 24.8399 9.05272 25.4004 9.84116 25.4004H29.8405C30.3016 25.4004 30.6753 25.0266 30.6753 24.5656C30.6753 24.1045 30.3016 23.7308 29.8405 23.7308H9.84122L9.34988 21.3457H29.9951C30.7835 21.3457 31.4712 20.7853 31.6303 20.0131L33.9653 8.67918C34.067 8.18565 33.9427 7.67837 33.6243 7.2877ZM29.9951 19.6763H9.00597L6.67105 8.34243L32.33 8.3425L29.9951 19.6763Z" fill="white"/>
</g>
<defs>
<clipPath id="clip0">
<rect width="34" height="34" fill="white"/>
</clipPath>
</defs>
</svg>
