<svg width="18" height="16" viewBox="0 0 18 16" fill="none" xmlns="http://www.w3.org/2000/svg">
<path d="M16.7748 5H1.22519C1.10082 5 1 5.10108 1 5.22577V5.71329C1 8.8977 1.73949 12.0384 3.1599 14.8866C3.19456 14.9561 3.2654 15 3.34289 15H14.6571C14.7346 15 14.8054 14.9561 14.8401 14.8866C16.2605 12.0384 17 8.8977 17 5.71329V5.22577C17 5.10108 16.8992 5 16.7748 5Z" fill="white"/>
<path d="M3.1599 14.8866L4.0548 14.4403L4.0548 14.4403L3.1599 14.8866ZM14.8401 14.8866L15.735 15.3329L15.735 15.3329L14.8401 14.8866ZM3.4638 4.49118C3.18279 4.96662 3.34041 5.57986 3.81585 5.86087C4.2913 6.14189 4.90453 5.98427 5.18555 5.50882L3.4638 4.49118ZM7.54976 1.50882C7.83078 1.03337 7.67316 0.420142 7.19771 0.139128C6.72226 -0.141886 6.10903 0.015732 5.82802 0.491179L7.54976 1.50882ZM12.172 0.491179C11.891 0.015732 11.2777 -0.141886 10.8023 0.139128C10.3268 0.420142 10.1692 1.03337 10.4502 1.50882L12.172 0.491179ZM12.8145 5.50882C13.0955 5.98427 13.7087 6.14189 14.1841 5.86087C14.6596 5.57986 14.8172 4.96662 14.5362 4.49118L12.8145 5.50882ZM1.22519 6H16.7748V4H1.22519V6ZM16 5.22577V5.71329H18V5.22577H16ZM14.6571 14H3.34289V16H14.6571V14ZM2 5.71329V5.22577H0V5.71329H2ZM4.0548 14.4403C2.70354 11.7308 2 8.74289 2 5.71329H0C0 9.05251 0.775433 12.346 2.26501 15.3329L4.0548 14.4403ZM3.34289 14C3.64556 14 3.9207 14.1714 4.0548 14.4403L2.26501 15.3329C2.46842 15.7408 2.88524 16 3.34289 16V14ZM13.9452 14.4403C14.0793 14.1714 14.3544 14 14.6571 14V16C15.1148 16 15.5316 15.7408 15.735 15.3329L13.9452 14.4403ZM16 5.71329C16 8.74289 15.2965 11.7308 13.9452 14.4403L15.735 15.3329C17.2246 12.346 18 9.05251 18 5.71329H16ZM16.7748 6C16.3444 6 16 5.65091 16 5.22577H18C18 4.55126 17.4539 4 16.7748 4V6ZM1.22519 4C0.546081 4 0 4.55125 0 5.22577H2C2 5.65091 1.65556 6 1.22519 6V4ZM5.18555 5.50882L7.54976 1.50882L5.82802 0.491179L3.4638 4.49118L5.18555 5.50882ZM10.4502 1.50882L12.8145 5.50882L14.5362 4.49118L12.172 0.491179L10.4502 1.50882Z" fill="white"/>
</svg>
