<svg width="34" height="34" viewBox="0 0 34 34" fill="none" xmlns="http://www.w3.org/2000/svg">
<g clip-path="url(#clip0)">
<path d="M32.4543 17.1426V12.364C32.4543 10.7436 31.1974 9.42579 29.6094 9.298L25.1716 1.5467C24.7603 0.829819 24.0963 0.317436 23.3016 0.104674C22.5108 -0.106639 21.6838 0.00434182 20.976 0.41632L5.76294 9.27308H3.09106C1.38643 9.27308 0.000183105 10.6593 0.000183105 12.364V30.9091C0.000183105 32.6138 1.38636 34 3.09106 34H29.3634C31.068 34 32.4543 32.6138 32.4543 30.9091V26.1305C33.3517 25.8104 33.9997 24.9608 33.9997 23.9547V19.3184C33.9997 18.3123 33.3517 17.4627 32.4543 17.1426ZM27.8136 9.27308H21.0786L26.1299 6.33222L27.8136 9.27308ZM25.3621 4.99111L18.0072 9.27308H14.9564L24.5993 3.65882L25.3621 4.99111ZM21.7539 1.75193C22.1033 1.54743 22.5115 1.4931 22.9017 1.59727C23.2964 1.70289 23.6254 1.95796 23.8299 2.31488L23.8315 2.31771L11.8851 9.27308H8.83448L21.7539 1.75193ZM30.9088 30.9091C30.9088 31.761 30.2153 32.4545 29.3634 32.4545H3.09106C2.23915 32.4545 1.54566 31.761 1.54566 30.9091V12.364C1.54566 11.512 2.23915 10.8186 3.09106 10.8186H29.3634C30.2153 10.8186 30.9088 11.512 30.9088 12.364V17.0003H26.2725C23.7159 17.0003 21.6362 19.0799 21.6362 21.6365C21.6362 24.1932 23.7159 26.2728 26.2725 26.2728H30.9088V30.9091ZM32.4543 23.9547C32.4543 24.381 32.1079 24.7274 31.6815 24.7274H26.2725C24.5679 24.7274 23.1816 23.3412 23.1816 21.6365C23.1816 19.9319 24.5678 18.5457 26.2725 18.5457H31.6815C32.1078 18.5457 32.4543 18.892 32.4543 19.3184V23.9547Z" fill="white"/>
<path d="M26.2725 20.0911C25.4206 20.0911 24.7271 20.7846 24.7271 21.6365C24.7271 22.4884 25.4206 23.1819 26.2725 23.1819C27.1244 23.1819 27.8179 22.4884 27.8179 21.6365C27.818 20.7846 27.1245 20.0911 26.2725 20.0911Z" fill="white"/>
</g>
<defs>
<clipPath id="clip0">
<rect width="34" height="34" fill="white"/>
</clipPath>
</defs>
</svg>
